<svg width="24" height="24" viewBox="0 0 24 24" fill="none" xmlns="http://www.w3.org/2000/svg">
<rect width="24" height="24" rx="12" fill="#EAEBF5"/>
<path d="M12.0007 11.4997C13.6115 11.4997 14.9173 10.1938 14.9173 8.58302C14.9173 6.97219 13.6115 5.66635 12.0007 5.66635C10.3898 5.66635 9.08398 6.97219 9.08398 8.58302C9.08398 10.1938 10.3898 11.4997 12.0007 11.4997Z" fill="#514FA1"/>
<path d="M17.2548 14.8003C16.5853 14.0749 15.7728 13.496 14.8685 13.1001C13.9643 12.7041 12.9878 12.4997 12.0007 12.4997C11.0135 12.4997 10.037 12.7041 9.13276 13.1001C8.22849 13.496 7.41601 14.0749 6.74648 14.8003C6.64278 14.9144 6.5849 15.0628 6.58398 15.217V17.717C6.58618 17.8813 6.65299 18.0382 6.76996 18.1536C6.88694 18.269 7.04466 18.3337 7.20898 18.3337H16.7923C16.9581 18.3337 17.117 18.2678 17.2343 18.1506C17.3515 18.0334 17.4173 17.8744 17.4173 17.7087V15.2087C17.4144 15.0574 17.3566 14.9123 17.2548 14.8003Z" fill="#514FA1"/>
</svg>
