<svg width="24" height="24" viewBox="0 0 24 24" fill="none" xmlns="http://www.w3.org/2000/svg">
<g clip-path="url(#clip0_6785_34533)">
<path d="M5.5692 10.0714V17.1428M9.85448 10.0714V17.1428M14.1411 10.0714V17.1428M18.4263 10.0714V17.1428M19.5963 10.0714H4.3992C3.6792 10.0714 3.37063 9.28712 3.93634 8.91426L11.5349 3.93855C11.6752 3.85602 11.835 3.8125 11.9978 3.8125C12.1605 3.8125 12.3203 3.85602 12.4606 3.93855L20.0592 8.91426C20.6249 9.28712 20.3163 10.0714 19.5963 10.0714ZM19.7121 17.1428H4.28348C4.11299 17.1428 3.94947 17.2106 3.82891 17.3311C3.70835 17.4517 3.64062 17.6152 3.64062 17.7857V19.7143C3.64062 19.8848 3.70835 20.0483 3.82891 20.1688C3.94947 20.2894 4.11299 20.3571 4.28348 20.3571H19.7121C19.8825 20.3571 20.0461 20.2894 20.1666 20.1688C20.2872 20.0483 20.3549 19.8848 20.3549 19.7143V17.7857C20.3549 17.6152 20.2872 17.4517 20.1666 17.3311C20.0461 17.2106 19.8825 17.1428 19.7121 17.1428Z" stroke="#673391" stroke-linecap="round" stroke-linejoin="round"/>
</g>
<defs>
<clipPath id="clip0_6785_34533">
<rect width="18" height="18" fill="white" transform="translate(3 3)"/>
</clipPath>
</defs>
</svg>