<svg width="24" height="24" viewBox="0 0 24 24" fill="none" xmlns="http://www.w3.org/2000/svg">
<g clip-path="url(#clip0_9923_6977)">
<g clip-path="url(#clip1_9923_6977)">
<path d="M13.4889 19.9617H10.6835C10.4766 19.9617 10.3099 19.794 10.3099 19.5881V18.3154C9.81064 18.1758 9.33151 17.9759 8.8785 17.7218L7.9785 18.6218C7.90818 18.6921 7.81276 18.7312 7.71433 18.7312C7.61489 18.7312 7.52047 18.6921 7.45017 18.6218L5.46434 16.638C5.31869 16.4923 5.31869 16.2552 5.46434 16.1086L6.36434 15.2086C6.1092 14.7556 5.91032 14.2755 5.7707 13.7772H4.49804C4.29112 13.7772 4.12439 13.6095 4.12439 13.4036V10.5982C4.12439 10.3912 4.29213 10.2245 4.49804 10.2245H5.7707C5.91032 9.72529 6.1102 9.24615 6.36434 8.79314L5.46434 7.89314C5.31869 7.7475 5.31869 7.51044 5.46434 7.36379L7.44814 5.37998C7.59379 5.23434 7.83085 5.23434 7.9775 5.37998L8.8775 6.27998C9.3305 6.02485 9.81064 5.82597 10.3089 5.68634V4.41369C10.3089 4.20677 10.4766 4.04004 10.6825 4.04004H13.4879C13.6949 4.04004 13.8616 4.20778 13.8616 4.41369V5.68634C14.3608 5.82597 14.8399 6.02585 15.293 6.27998L16.193 5.37998C16.3396 5.23434 16.5757 5.23434 16.7223 5.37998L18.7061 7.36379C18.7764 7.4341 18.8156 7.52953 18.8156 7.62795C18.8156 7.7274 18.7764 7.82182 18.7061 7.89212L17.8061 8.79212C18.0612 9.24512 18.2601 9.72526 18.3998 10.2235H19.6724C19.8793 10.2235 20.0461 10.3912 20.0461 10.5971V13.4026C20.0461 13.6095 19.8783 13.7762 19.6724 13.7762H18.3998C18.2601 14.2754 18.0602 14.7546 17.8061 15.2076L18.7061 16.1076C18.7764 16.1779 18.8156 16.2733 18.8156 16.3717C18.8156 16.4712 18.7764 16.5656 18.7061 16.6359L16.7233 18.6217C16.653 18.692 16.5576 18.7312 16.4591 18.7312C16.3597 18.7312 16.2653 18.692 16.195 18.6217L15.295 17.7217C14.842 17.9769 14.3618 18.1757 13.8636 18.3154V19.588C13.8626 19.7949 13.6948 19.9617 13.4889 19.9617ZM11.0571 19.2144H13.1143V18.0261C13.1143 17.8523 13.2338 17.7007 13.4036 17.6615C14.0233 17.5178 14.6129 17.2738 15.1554 16.9353C15.303 16.8429 15.4949 16.865 15.6174 16.9885L16.4581 17.8292L17.9126 16.3748L17.0719 15.534C16.9483 15.4105 16.9272 15.2196 17.0186 15.072C17.3571 14.5296 17.6012 13.94 17.7449 13.3202C17.784 13.1504 17.9347 13.0309 18.1095 13.0309H19.2978V10.9738H18.1095C17.9357 10.9738 17.784 10.8542 17.7449 10.6845C17.6012 10.0647 17.3571 9.47512 17.0186 8.9327C16.9262 8.78505 16.9483 8.5932 17.0719 8.47064L17.9126 7.62991L16.4581 6.17546L15.6174 7.01619C15.4939 7.13874 15.303 7.16084 15.1554 7.06943C14.6129 6.73093 14.0233 6.48685 13.4036 6.34321C13.2338 6.30403 13.1143 6.15336 13.1143 5.97858V4.79029H11.0571V5.97858C11.0571 6.15235 10.9376 6.30402 10.7679 6.34321C10.1481 6.48684 9.55849 6.73093 9.01607 7.06943C8.86841 7.16184 8.67656 7.13974 8.55401 7.01619L7.71328 6.17546L6.25883 7.62991L7.09956 8.47064C7.22311 8.59419 7.2442 8.78505 7.15279 8.9327C6.81429 9.47512 6.57021 10.0647 6.42657 10.6845C6.3874 10.8542 6.23673 10.9738 6.06194 10.9738H4.87366V13.0309H6.06194C6.23571 13.0309 6.38738 13.1504 6.42657 13.3202C6.57021 13.94 6.81429 14.5296 7.15279 15.072C7.24521 15.2196 7.22311 15.4115 7.09956 15.534L6.25883 16.3748L7.71328 17.8292L8.55401 16.9885C8.67756 16.866 8.86842 16.8439 9.01607 16.9353C9.55849 17.2738 10.1481 17.5178 10.7679 17.6615C10.9376 17.7007 11.0571 17.8513 11.0571 18.0261V19.2144Z" fill="white"/>
<path d="M12.0857 16.8493C9.41194 16.8493 7.23625 14.6736 7.23625 11.9998C7.23625 9.32605 9.41191 7.15039 12.0857 7.15039C14.7595 7.15039 16.9352 9.32605 16.9352 11.9998C16.9352 14.6736 14.7595 16.8493 12.0857 16.8493ZM12.0857 7.89765C9.82365 7.89765 7.98351 9.73781 7.98351 11.9998C7.98351 14.2619 9.82367 16.102 12.0857 16.102C14.3477 16.102 16.1879 14.2619 16.1879 11.9998C16.1879 9.73781 14.3477 7.89765 12.0857 7.89765Z" fill="white"/>
<path d="M4.49794 12.3733H2.6226C2.41568 12.3733 2.24895 12.2055 2.24895 11.9996C2.24895 11.7927 2.41669 11.626 2.6226 11.626H4.49794C4.70486 11.626 4.8716 11.7937 4.8716 11.9996C4.8716 12.2066 4.70486 12.3733 4.49794 12.3733Z" fill="white"/>
<path d="M1.55693 13.4394C0.762407 13.4394 0.116516 12.7935 0.116516 12C0.116516 11.2064 0.762382 10.5605 1.55592 10.5605C2.35044 10.5605 2.99634 11.2064 2.99634 12C2.99634 12.7935 2.35047 13.4394 1.55693 13.4394ZM1.55693 11.3079C1.17522 11.3079 0.864853 11.6183 0.864853 12C0.864853 12.3817 1.17522 12.692 1.55693 12.692C1.93863 12.692 2.249 12.3817 2.249 12C2.248 11.6183 1.93763 11.3079 1.55693 11.3079Z" fill="white"/>
<path d="M5.39409 19.0652C5.29867 19.0652 5.20224 19.029 5.12993 18.9557C4.98428 18.81 4.98428 18.573 5.12993 18.4263L6.45581 17.1004C6.60146 16.9548 6.83851 16.9548 6.98516 17.1004C7.13081 17.2461 7.13081 17.4832 6.98516 17.6298L5.65928 18.9557C5.58595 19.029 5.4895 19.0652 5.39409 19.0652Z" fill="white"/>
<path d="M4.64066 20.8846C4.27202 20.8846 3.90338 20.744 3.62315 20.4638C3.35094 20.1915 3.20128 19.83 3.20128 19.4462C3.20128 19.0615 3.35094 18.6999 3.62315 18.4277C3.89535 18.1555 4.25695 18.0059 4.64066 18.0059C5.02537 18.0059 5.38697 18.1555 5.65918 18.4277C5.93139 18.6999 6.08105 19.0615 6.08105 19.4452C6.08105 19.83 5.93138 20.1915 5.65918 20.4628C5.37792 20.744 5.0093 20.8846 4.64066 20.8846ZM4.64066 18.7531C4.45584 18.7531 4.28208 18.8255 4.1515 18.956C4.02092 19.0866 3.9486 19.2604 3.9486 19.4452C3.9486 19.63 4.02092 19.8038 4.1515 19.9344C4.4217 20.2046 4.85964 20.2046 5.12985 19.9344C5.26043 19.8038 5.33275 19.63 5.33275 19.4452C5.33275 19.2604 5.26043 19.0866 5.12985 18.956C4.99927 18.8255 4.82547 18.7531 4.64066 18.7531Z" fill="white"/>
<path d="M21.5488 12.3733H19.6735C19.4666 12.3733 19.2998 12.2055 19.2998 11.9996C19.2998 11.7927 19.4676 11.626 19.6735 11.626H21.5488C21.7558 11.626 21.9225 11.7937 21.9225 11.9996C21.9235 12.2066 21.7557 12.3733 21.5488 12.3733Z" fill="white"/>
<path d="M22.6144 13.4394C21.8209 13.4394 21.175 12.7935 21.175 12C21.175 11.2064 21.8209 10.5605 22.6144 10.5605C23.4089 10.5605 24.0548 11.2064 24.0548 12C24.0548 12.7935 23.409 13.4394 22.6144 13.4394ZM22.6144 11.3079C22.2327 11.3079 21.9224 11.6183 21.9224 12C21.9224 12.3817 22.2327 12.692 22.6144 12.692C22.9961 12.692 23.3065 12.3817 23.3065 12C23.3065 11.6183 22.9961 11.3079 22.6144 11.3079Z" fill="white"/>
<path d="M17.4515 7.00853C17.3561 7.00853 17.2597 6.97237 17.1874 6.89904C17.0417 6.75339 17.0417 6.51633 17.1874 6.36969L18.5132 5.04381C18.6599 4.89816 18.8959 4.89816 19.0426 5.04381C19.1882 5.18945 19.1882 5.42651 19.0426 5.57316L17.7167 6.89904C17.6424 6.97136 17.5469 7.00853 17.4515 7.00853Z" fill="white"/>
<path d="M19.5308 5.99403C19.1461 5.99403 18.7845 5.84436 18.5123 5.57216C18.2401 5.29995 18.0904 4.93835 18.0904 4.55464C18.0904 4.16993 18.2401 3.80834 18.5123 3.53613C18.7845 3.26392 19.1461 3.11426 19.5298 3.11426C19.9145 3.11426 20.2761 3.26392 20.5473 3.53613C21.1088 4.09762 21.1088 5.01069 20.5473 5.57218C20.2771 5.84439 19.9155 5.99403 19.5308 5.99403ZM19.5308 3.86254C19.346 3.86254 19.1722 3.93487 19.0416 4.06544C18.911 4.19602 18.8387 4.3698 18.8387 4.55461C18.8387 4.73942 18.911 4.91319 19.0416 5.04377C19.1722 5.17435 19.346 5.24667 19.5308 5.24667C19.7156 5.24667 19.8894 5.17435 20.0199 5.04377C20.2901 4.77457 20.2901 4.33562 20.0199 4.06542C19.8894 3.93484 19.7156 3.86254 19.5308 3.86254Z" fill="white"/>
<path d="M11.1667 13.8776C11.009 13.8776 10.8623 13.7772 10.8111 13.6185L10.1984 11.7171L9.58566 13.6175C9.52238 13.8144 9.31145 13.9218 9.11458 13.8586C8.9177 13.7953 8.81022 13.5843 8.87351 13.3875L9.8418 10.3812C9.89203 10.2265 10.0357 10.1221 10.1974 10.1221C10.3601 10.1221 10.5037 10.2265 10.553 10.3812L11.5213 13.3875C11.5845 13.5843 11.4771 13.7953 11.2802 13.8586C11.243 13.8716 11.2049 13.8776 11.1667 13.8776Z" fill="white"/>
<path d="M10.9466 13.1936H9.44992C9.243 13.1936 9.07626 13.0259 9.07626 12.8199C9.07626 12.613 9.24401 12.4463 9.44992 12.4463H10.9466C11.1535 12.4463 11.3202 12.614 11.3202 12.8199C11.3202 13.0269 11.1535 13.1936 10.9466 13.1936Z" fill="white"/>
<path d="M12.3588 13.889C12.1519 13.889 11.9851 13.7213 11.9851 13.5154V10.486C11.9851 10.279 12.1529 10.1123 12.3588 10.1123H13.0298C13.6606 10.1123 14.1739 10.6256 14.1739 11.2564C14.1739 11.8872 13.6606 12.4005 13.0298 12.4005H12.7335V13.5164C12.7325 13.7213 12.5657 13.889 12.3588 13.889ZM12.7324 11.6501H13.0288C13.2467 11.6501 13.4245 11.4723 13.4245 11.2543C13.4245 11.0363 13.2467 10.8585 13.0288 10.8585H12.7324V11.6501Z" fill="white"/>
<path d="M14.9413 13.889C14.7344 13.889 14.5676 13.7213 14.5676 13.5154V10.486C14.5676 10.279 14.7354 10.1123 14.9413 10.1123C15.1482 10.1123 15.3149 10.28 15.3149 10.486V13.5154C15.3159 13.7213 15.1482 13.889 14.9413 13.889Z" fill="white"/>
</g>
</g>
<defs>
<clipPath id="clip0_9923_6977">
<rect width="24" height="24" fill="white"/>
</clipPath>
<clipPath id="clip1_9923_6977">
<rect width="24.1714" height="18" fill="white" transform="translate(0 3)"/>
</clipPath>
</defs>
</svg>