<svg width="12" height="10" viewBox="0 0 12 10" fill="none" xmlns="http://www.w3.org/2000/svg">
<path fill-rule="evenodd" clip-rule="evenodd" d="M6.39139 0.209425C6.63547 -0.0346522 7.0312 -0.0346522 7.27528 0.209425L11.4419 4.37609C11.5592 4.4933 11.625 4.65227 11.625 4.81803C11.625 4.9838 11.5592 5.14277 11.4419 5.25998L7.27528 9.42664C7.0312 9.67072 6.63547 9.67072 6.39139 9.42664C6.14731 9.18257 6.14731 8.78684 6.39139 8.54276L9.49112 5.44303L1 5.44303C0.654822 5.44303 0.375 5.16321 0.375 4.81803C0.375 4.47286 0.654822 4.19303 1 4.19303L9.49112 4.19303L6.39139 1.09331C6.14731 0.849231 6.14731 0.453503 6.39139 0.209425Z" fill="#514FA1"/>
</svg>