<svg width="24" height="24" viewBox="0 0 24 24" fill="none" xmlns="http://www.w3.org/2000/svg">
<path d="M18.5907 9.81927C19.0012 9.35753 19.7092 8.65979 19.6715 8.37505C19.7006 8.09886 19.551 7.83892 19.2517 7.31989L18.8293 6.58794C18.5103 6.03385 18.3505 5.75681 18.0794 5.6465C17.8075 5.53534 17.5005 5.62256 16.8866 5.797L15.8434 6.09114C15.45 6.18178 15.0396 6.13048 14.6813 5.94578L14.3932 5.7799C14.086 5.58294 13.8499 5.2929 13.7194 4.95218L13.4338 4.09967C13.2457 3.53532 13.1516 3.25315 12.9293 3.09154C12.7044 2.93164 12.4068 2.93164 11.8134 2.93164H10.8608C10.2666 2.93164 9.96986 2.93164 9.74668 3.09239C9.52266 3.25486 9.42945 3.53703 9.24134 4.10138L8.95574 4.95304C8.82519 5.29376 8.58909 5.58379 8.28194 5.78075L7.99378 5.94749C7.6355 6.13133 7.22421 6.18264 6.83173 6.092L5.78854 5.79785C5.1746 5.62342 4.86763 5.5362 4.59571 5.64736C4.32465 5.75766 4.16475 6.03471 3.84581 6.58794L3.4234 7.32074C3.12413 7.83977 2.97449 8.09972 3.00442 8.3759C3.03264 8.65209 3.23272 8.87527 3.63375 9.32076L4.51448 10.3058C4.73081 10.5794 4.88387 11.0549 4.88387 11.4815C4.88387 11.9091 4.72996 12.3845 4.51534 12.6573L3.63375 13.6423C3.23272 14.0878 3.03264 14.3101 3.00356 14.5872C2.97449 14.8642 3.12413 15.1233 3.4234 15.6423L3.84581 16.3743C4.16475 16.9284 4.32465 17.2054 4.59571 17.3157C4.86763 17.4269 5.1746 17.3397 5.78854 17.1652L6.83173 16.8711C7.22439 16.7811 7.63622 16.8325 7.99464 17.0164L8.28194 17.1823C8.58891 17.379 8.82491 17.6689 8.95574 18.01L9.24134 18.8625C9.42945 19.4269 9.53206 19.7202 9.70393 19.8442C9.75524 19.8809 9.96045 20.0494 10.4632 20.0331" stroke="#673391" stroke-linecap="round" stroke-linejoin="round"/>
<path d="M13.3999 9.29694C12.6817 8.71207 12.1173 8.48633 11.2964 8.48633C9.75731 8.50685 8.35156 9.77749 8.35156 11.4312C8.35156 12.3419 8.62861 12.919 9.15191 13.5244" stroke="#673391" stroke-linecap="round" stroke-linejoin="round"/>
<path fill-rule="evenodd" clip-rule="evenodd" d="M17.0704 14.408H17.7267C17.9761 14.408 18.1782 14.2059 18.1782 13.9565C18.1782 13.7072 17.9761 13.505 17.7267 13.505H15.8983C15.8914 13.5049 15.8846 13.5049 15.8778 13.505H14.5098C14.2605 13.505 14.0584 13.7072 14.0584 13.9565C14.0584 14.2059 14.2605 14.408 14.5098 14.408H15.8163C15.9121 14.4435 16.0318 14.5076 16.1315 14.6152C16.2042 14.6937 16.2783 14.8077 16.3205 14.9792H14.5098C14.2605 14.9792 14.0584 15.1813 14.0584 15.4307C14.0584 15.68 14.2605 15.8821 14.5098 15.8821H16.2097C16.1941 15.9074 16.1778 15.9309 16.161 15.953C16.0478 16.1016 15.8887 16.2111 15.7073 16.2905C15.5257 16.37 15.3379 16.4119 15.1912 16.4333C15.119 16.4438 15.0597 16.4489 15.02 16.4514C15.0002 16.4527 14.9854 16.4532 14.9766 16.4535L14.968 16.4537C14.7865 16.4539 14.6233 16.5629 14.5529 16.7302C14.4825 16.8978 14.5194 17.0913 14.6466 17.2211L14.9691 16.9052C14.6466 17.2211 14.6466 17.2211 14.6466 17.2211L14.6475 17.2219L14.6486 17.2231L14.652 17.2265L14.6628 17.2373C14.6718 17.2461 14.6843 17.2583 14.7003 17.2735C14.7323 17.3039 14.7782 17.3463 14.837 17.3978C14.9545 17.5006 15.1246 17.6403 15.3401 17.793C15.7689 18.0967 16.3888 18.4597 17.1405 18.6789C17.3799 18.7487 17.6305 18.6113 17.7003 18.3719C17.7702 18.1325 17.6327 17.8819 17.3933 17.8121C16.8378 17.6501 16.3591 17.3904 15.9962 17.1483C16.0204 17.1386 16.0448 17.1284 16.0692 17.1177C16.3474 16.9961 16.6478 16.8041 16.8793 16.5003C17.0138 16.3237 17.1183 16.118 17.1833 15.8821H17.7267C17.9761 15.8821 18.1782 15.68 18.1782 15.4307C18.1782 15.1813 17.9761 14.9792 17.7267 14.9792H17.2381C17.209 14.7637 17.1504 14.5738 17.0704 14.408Z" fill="#673391"/>
<path fill-rule="evenodd" clip-rule="evenodd" d="M15.9377 10.9434C17.2803 10.9434 18.5679 11.4767 19.5173 12.426C20.4666 13.3754 21 14.6629 21 16.0055C21 17.3481 20.4666 18.6356 19.5173 19.585C18.5679 20.5343 17.2803 21.0676 15.9377 21.0676C14.5951 21.0676 13.3074 20.5343 12.358 19.585C11.4087 18.6356 10.8754 17.3481 10.8754 16.0055C10.8754 14.6629 11.4087 13.3754 12.3581 12.426C13.3075 11.4767 14.5951 10.9434 15.9377 10.9434ZM15.9207 19.9386C13.7389 19.9386 11.9702 18.17 11.9702 15.9882C11.9702 13.8065 13.7389 12.0379 15.9207 12.0379C18.1026 12.0379 19.8713 13.8065 19.8713 15.9882C19.8713 18.17 18.1026 19.9386 15.9207 19.9386Z" fill="#673391"/>
</svg>