<svg width="24" height="24" viewBox="0 0 24 24" fill="none" xmlns="http://www.w3.org/2000/svg">
<path d="M18.5907 9.82123C19.0012 9.35948 19.7092 8.66174 19.6715 8.377C19.7006 8.10081 19.551 7.84087 19.2517 7.32184L18.8293 6.5899C18.5103 6.03581 18.3505 5.75876 18.0794 5.64846C17.8075 5.5373 17.5005 5.62452 16.8866 5.79895L15.8434 6.0931C15.45 6.18373 15.0396 6.13243 14.6813 5.94773L14.3932 5.78185C14.086 5.58489 13.8499 5.29486 13.7194 4.95414L13.4338 4.10163C13.2457 3.53728 13.1516 3.2551 12.9293 3.09349C12.7044 2.93359 12.4068 2.93359 11.8134 2.93359H10.8608C10.2666 2.93359 9.96986 2.93359 9.74668 3.09435C9.52266 3.25681 9.42945 3.53899 9.24134 4.10334L8.95574 4.95499C8.82519 5.29571 8.58909 5.58574 8.28194 5.7827L7.99378 5.94944C7.6355 6.13329 7.22421 6.18459 6.83173 6.09395L5.78854 5.79981C5.1746 5.62537 4.86763 5.53815 4.59571 5.64931C4.32465 5.75962 4.16475 6.03666 3.84581 6.5899L3.4234 7.32269C3.12413 7.84173 2.97449 8.10167 3.00442 8.37786C3.03264 8.65405 3.23272 8.87722 3.63375 9.32272L4.51448 10.3078C4.73081 10.5814 4.88387 11.0568 4.88387 11.4835C4.88387 11.911 4.72996 12.3865 4.51534 12.6592L3.63375 13.6443C3.23272 14.0898 3.03264 14.3121 3.00356 14.5891C2.97449 14.8662 3.12413 15.1253 3.4234 15.6443L3.84581 16.3762C4.16475 16.9303 4.32465 17.2074 4.59571 17.3177C4.86763 17.4288 5.1746 17.3416 5.78854 17.1672L6.83173 16.873C7.22439 16.783 7.63622 16.8345 7.99464 17.0184L8.28194 17.1843C8.58891 17.3809 8.82491 17.6708 8.95574 18.012L9.24134 18.8645C9.42945 19.4289 9.53206 19.7221 9.70393 19.8461C9.75524 19.8829 9.96045 20.0513 10.4632 20.0351" stroke="white" stroke-linecap="round" stroke-linejoin="round"/>
<path d="M13.3999 9.29889C12.6817 8.71402 12.1173 8.48828 11.2964 8.48828C9.75731 8.5088 8.35156 9.77944 8.35156 11.4332C8.35156 12.3438 8.62861 12.921 9.15191 13.5264" stroke="white" stroke-linecap="round" stroke-linejoin="round"/>
<path fill-rule="evenodd" clip-rule="evenodd" d="M17.0704 14.4099H17.7267C17.9761 14.4099 18.1782 14.2078 18.1782 13.9585C18.1782 13.7091 17.9761 13.507 17.7267 13.507H15.8983C15.8914 13.5068 15.8846 13.5068 15.8778 13.507H14.5098C14.2605 13.507 14.0584 13.7091 14.0584 13.9585C14.0584 14.2078 14.2605 14.4099 14.5098 14.4099H15.8163C15.9121 14.4454 16.0318 14.5096 16.1315 14.6172C16.2042 14.6956 16.2783 14.8097 16.3205 14.9812H14.5098C14.2605 14.9812 14.0584 15.1833 14.0584 15.4326C14.0584 15.682 14.2605 15.8841 14.5098 15.8841H16.2097C16.1941 15.9093 16.1778 15.9329 16.161 15.955C16.0478 16.1035 15.8887 16.2131 15.7073 16.2925C15.5257 16.3719 15.3379 16.4139 15.1912 16.4352C15.119 16.4458 15.0597 16.4509 15.02 16.4534C15.0002 16.4546 14.9854 16.4552 14.9766 16.4554L14.968 16.4556C14.7865 16.4559 14.6233 16.5648 14.5529 16.7322C14.4825 16.8998 14.5194 17.0932 14.6466 17.223L14.9691 16.9071C14.6466 17.223 14.6466 17.223 14.6466 17.223L14.6475 17.2239L14.6486 17.2251L14.652 17.2285L14.6628 17.2392C14.6718 17.2481 14.6843 17.2603 14.7003 17.2755C14.7323 17.3059 14.7782 17.3483 14.837 17.3998C14.9545 17.5026 15.1246 17.6423 15.3401 17.7949C15.7689 18.0987 16.3888 18.4616 17.1405 18.6809C17.3799 18.7507 17.6305 18.6132 17.7003 18.3739C17.7702 18.1345 17.6327 17.8839 17.3933 17.814C16.8378 17.652 16.3591 17.3923 15.9962 17.1503C16.0204 17.1406 16.0448 17.1304 16.0692 17.1197C16.3474 16.998 16.6478 16.806 16.8793 16.5022C17.0138 16.3256 17.1183 16.1199 17.1833 15.8841H17.7267C17.9761 15.8841 18.1782 15.682 18.1782 15.4326C18.1782 15.1833 17.9761 14.9812 17.7267 14.9812H17.2381C17.209 14.7656 17.1504 14.5758 17.0704 14.4099Z" fill="white"/>
<path fill-rule="evenodd" clip-rule="evenodd" d="M15.9377 10.9453C17.2803 10.9453 18.5679 11.4787 19.5173 12.428C20.4666 13.3773 21 14.6649 21 16.0074C21 17.35 20.4666 18.6376 19.5173 19.5869C18.5679 20.5362 17.2803 21.0696 15.9377 21.0696C14.5951 21.0696 13.3074 20.5362 12.358 19.5869C11.4087 18.6376 10.8754 17.35 10.8754 16.0074C10.8754 14.6649 11.4087 13.3773 12.3581 12.4279C13.3075 11.4787 14.5951 10.9453 15.9377 10.9453ZM15.9207 19.9406C13.7389 19.9406 11.9702 18.1719 11.9702 15.9902C11.9702 13.8085 13.7389 12.0398 15.9207 12.0398C18.1026 12.0398 19.8713 13.8085 19.8713 15.9902C19.8713 18.1719 18.1026 19.9406 15.9207 19.9406Z" fill="white"/>
</svg>