<svg width="40" height="40" viewBox="0 0 40 40" fill="none" xmlns="http://www.w3.org/2000/svg">
<path d="M7.69333 31.6667C6.94667 31.6667 6.31111 31.4044 5.78667 30.88C5.26222 30.3556 5 29.7206 5 28.975V7.69167C5 6.94722 5.26222 6.31222 5.78667 5.78667C6.31111 5.26222 6.94667 5 7.69333 5H28.975C29.7194 5 30.3544 5.26222 30.88 5.78667C31.4044 6.31111 31.6667 6.94667 31.6667 7.69333V17.61C31.3744 17.5089 31.0944 17.4267 30.8267 17.3633C30.56 17.3011 30.2844 17.2389 30 17.1767V7.69333C30 7.43667 29.8933 7.20111 29.68 6.98667C29.4667 6.77222 29.2311 6.66556 28.9733 6.66667H7.69333C7.43667 6.66667 7.20111 6.77333 6.98667 6.98667C6.77222 7.2 6.66556 7.43556 6.66667 7.69333V28.975C6.66667 29.2306 6.77333 29.4656 6.98667 29.68C7.2 29.8944 7.435 30.0011 7.69167 30H17.135C17.175 30.3111 17.2267 30.6006 17.29 30.8683C17.3533 31.135 17.435 31.4011 17.535 31.6667H7.69333ZM6.66667 28.3333V30V6.66667V17.1767V17.0517V28.3333ZM10.8333 25.45H17.4333C17.4944 25.1644 17.5778 24.8883 17.6833 24.6217L18.0167 23.7817H10.8333V25.45ZM10.8333 19.1667H21.8C22.3478 18.7822 22.8872 18.4567 23.4183 18.19C23.9494 17.9222 24.5194 17.7122 25.1283 17.56V17.5H10.8333V19.1667ZM10.8333 12.8833H25.8333V11.2167H10.8333V12.8833ZM28.3333 35.195C26.4767 35.195 24.9017 34.5478 23.6083 33.2533C22.3139 31.9589 21.6667 30.3833 21.6667 28.5267C21.6667 26.67 22.3139 25.0944 23.6083 23.8C24.9028 22.5056 26.4778 21.8589 28.3333 21.86C30.1889 21.8611 31.7644 22.5078 33.06 23.8C34.3556 25.0922 35.0022 26.6678 35 28.5267C35 30.3822 34.3533 31.9572 33.06 33.2517C31.7644 34.5461 30.1889 35.1933 28.3333 35.1933M27.4271 33.3333H29.6179V29.1667H33.1417V26.9742H29.6179V23.7167H27.4254V26.9742H23.525V29.1667H27.4254L27.4271 33.3333Z" fill="url(#paint0_linear_9846_4892)"/>
<path d="M28.3333 35.195C26.4767 35.195 24.9017 34.5478 23.6083 33.2533C22.3139 31.9589 21.6667 30.3833 21.6667 28.5267C21.6667 26.67 22.3139 25.0944 23.6083 23.8C24.9028 22.5056 26.4778 21.8589 28.3333 21.86C30.1889 21.8611 31.7644 22.5078 33.06 23.8C34.3556 25.0922 35.0022 26.6678 35 28.5267C35 30.3822 34.3533 31.9572 33.06 33.2517C31.7644 34.5461 30.1889 35.1933 28.3333 35.1933M7.69333 31.6667C6.94667 31.6667 6.31111 31.4044 5.78667 30.88C5.26222 30.3556 5 29.7206 5 28.975V7.69167C5 6.94722 5.26222 6.31222 5.78667 5.78667C6.31111 5.26222 6.94667 5 7.69333 5H28.975C29.7194 5 30.3544 5.26222 30.88 5.78667C31.4044 6.31111 31.6667 6.94667 31.6667 7.69333V17.61C31.3744 17.5089 31.0944 17.4267 30.8267 17.3633C30.56 17.3011 30.2844 17.2389 30 17.1767V7.69333C30 7.43667 29.8933 7.20111 29.68 6.98667C29.4667 6.77222 29.2311 6.66556 28.9733 6.66667H7.69333C7.43667 6.66667 7.20111 6.77333 6.98667 6.98667C6.77222 7.2 6.66556 7.43556 6.66667 7.69333V28.975C6.66667 29.2306 6.77333 29.4656 6.98667 29.68C7.2 29.8944 7.435 30.0011 7.69167 30H17.135C17.175 30.3111 17.2267 30.6006 17.29 30.8683C17.3533 31.135 17.435 31.4011 17.535 31.6667H7.69333ZM6.66667 28.3333V30V6.66667V17.1767V17.0517V28.3333ZM10.8333 25.45H17.4333C17.4944 25.1644 17.5778 24.8883 17.6833 24.6217L18.0167 23.7817H10.8333V25.45ZM10.8333 19.1667H21.8C22.3478 18.7822 22.8872 18.4567 23.4183 18.19C23.9494 17.9222 24.5194 17.7122 25.1283 17.56V17.5H10.8333V19.1667ZM10.8333 12.8833H25.8333V11.2167H10.8333V12.8833ZM27.4271 33.3333H29.6179V29.1667H33.1417V26.9742H29.6179V23.7167H27.4254V26.9742H23.525V29.1667H27.4254L27.4271 33.3333Z" stroke="url(#paint1_linear_9846_4892)"/>
<defs>
<linearGradient id="paint0_linear_9846_4892" x1="7.70365" y1="32.1707" x2="42.1779" y2="16.1179" gradientUnits="userSpaceOnUse">
<stop stop-color="#C62052"/>
<stop offset="0.78" stop-color="#280071"/>
</linearGradient>
<linearGradient id="paint1_linear_9846_4892" x1="7.70365" y1="32.1707" x2="42.1779" y2="16.1179" gradientUnits="userSpaceOnUse">
<stop stop-color="#C62052"/>
<stop offset="0.78" stop-color="#280071"/>
</linearGradient>
</defs>
</svg>