<svg width="24" height="24" viewBox="0 0 24 24" fill="none" xmlns="http://www.w3.org/2000/svg">
<path d="M20.2911 10.2875C19.4684 10.2875 18.7722 10.8584 18.6034 11.6406H16.2827C16.1983 10.7526 15.8608 9.92812 15.3122 9.27273L16.9578 7.62368C17.2321 7.79281 17.5274 7.89852 17.8861 7.89852C18.8354 7.89852 19.616 7.11628 19.616 6.1649C19.616 5.21353 18.8143 4.41015 17.865 4.41015C16.9156 4.41015 16.135 5.19239 16.135 6.14376C16.135 6.48203 16.2405 6.79915 16.4093 7.074L14.7426 8.72304C14.0886 8.17336 13.2869 7.8351 12.3797 7.75053V5.42495C13.1603 5.25581 13.73 4.55814 13.73 3.73362C13.73 2.78224 12.9494 2 12 2C11.0506 2 10.27 2.78224 10.27 3.73362C10.27 4.55814 10.8397 5.25581 11.6203 5.42495V7.75053C10.7342 7.8351 9.91139 8.17336 9.25738 8.72304L7.61181 7.074C7.78059 6.79915 7.88608 6.50317 7.88608 6.14376C7.88608 5.19239 7.10548 4.41015 6.15612 4.41015C5.20675 4.41015 4.40506 5.19239 4.40506 6.14376C4.40506 7.09514 5.18565 7.87738 6.13502 7.87738C6.47257 7.87738 6.78903 7.77167 7.06329 7.60254L8.70886 9.25159C8.16034 9.90698 7.82278 10.7104 7.7384 11.6195H5.41772C5.24894 10.8372 4.55274 10.2664 3.72996 10.2664C2.78059 10.2664 2 11.0486 2 12C2 12.9514 2.78059 13.7336 3.72996 13.7336C4.55274 13.7336 5.24894 13.1628 5.41772 12.3806H7.7384C7.82278 13.2685 8.16034 14.093 8.70886 14.7484L7.06329 16.3975C6.78903 16.2283 6.47257 16.1226 6.13502 16.1226C5.18565 16.1226 4.40506 16.9049 4.40506 17.8562C4.40506 18.8076 5.18565 19.5899 6.13502 19.5899C7.08439 19.5899 7.86498 18.8076 7.86498 17.8562C7.86498 17.518 7.75949 17.2008 7.59072 16.926L9.23629 15.277C9.8903 15.8266 10.692 16.1649 11.5992 16.2495V18.5751C10.8186 18.7442 10.2489 19.4419 10.2489 20.2664C10.2489 21.2178 11.0295 22 11.9789 22C12.9283 22 13.7089 21.2178 13.7089 20.2664C13.7089 19.4419 13.1392 18.7442 12.3587 18.5751V16.2495C13.2447 16.1649 14.0675 15.8266 14.7215 15.277L16.3671 16.926C16.1983 17.2008 16.0928 17.518 16.0928 17.8562C16.0928 18.8076 16.8734 19.5899 17.8228 19.5899C18.7722 19.5899 19.5527 18.8076 19.5527 17.8562C19.5527 16.9049 18.7722 16.1226 17.8228 16.1226C17.4852 16.1226 17.1688 16.2283 16.8945 16.3975L15.2911 14.7696C15.8397 14.1142 16.1772 13.3108 16.2616 12.4017H18.5823C18.7511 13.1839 19.4473 13.7548 20.27 13.7548C21.2194 13.7548 22 12.9725 22 12.0211C22 11.0698 21.2405 10.2875 20.2911 10.2875ZM3.70886 12.9725C3.18143 12.9725 2.75949 12.5497 2.75949 12.0211C2.75949 11.4926 3.18143 11.0698 3.70886 11.0698C4.23629 11.0698 4.65823 11.4926 4.65823 12.0211C4.67932 12.5497 4.23629 12.9725 3.70886 12.9725ZM17.865 5.19239C18.3924 5.19239 18.8143 5.61522 18.8143 6.14376C18.8143 6.6723 18.3924 7.09514 17.865 7.09514C17.3376 7.09514 16.9156 6.6723 16.9156 6.14376C16.9156 5.61522 17.3376 5.19239 17.865 5.19239ZM14.8481 9.92812C14.4473 10.1184 14.0464 10.2664 13.6456 10.3721C13.5401 9.7167 13.3713 9.14588 13.1603 8.68076C13.8354 8.93446 14.4262 9.35729 14.8481 9.92812ZM12.9705 12.0211C12.9705 12.2748 12.9494 12.5074 12.9494 12.74C12.3165 12.6554 11.6835 12.6554 11.0717 12.74C11.0506 12.5074 11.0506 12.2748 11.0506 12.0211C11.0506 11.7674 11.0717 11.5349 11.0717 11.3023C11.3882 11.3446 11.7046 11.3658 12.0211 11.3658C12.3376 11.3658 12.654 11.3446 12.9705 11.3023C12.9494 11.5349 12.9705 11.7674 12.9705 12.0211ZM12 15.5518C11.789 15.5518 11.346 14.8541 11.135 13.5011C11.7046 13.4165 12.2954 13.4165 12.865 13.5011C12.654 14.8541 12.211 15.5518 12 15.5518ZM11.135 10.5201C11.346 9.16702 11.789 8.46934 12 8.46934C12.211 8.46934 12.654 9.16702 12.865 10.5201C12.2954 10.6047 11.7046 10.6047 11.135 10.5201ZM11.0506 3.71247C11.0506 3.18393 11.4726 2.7611 12 2.7611C12.5274 2.7611 12.9494 3.18393 12.9494 3.71247C12.9494 4.24101 12.5274 4.66385 12 4.66385C11.4726 4.66385 11.0506 4.24101 11.0506 3.71247ZM10.8608 8.68076C10.6498 9.14588 10.481 9.7167 10.3755 10.3721C9.95359 10.2664 9.55274 10.1184 9.173 9.92812C9.57384 9.35729 10.1646 8.93446 10.8608 8.68076ZM6.13502 7.11628C5.60759 7.11628 5.18565 6.69345 5.18565 6.1649C5.18565 5.63636 5.60759 5.21353 6.13502 5.21353C6.66245 5.21353 7.08439 5.63636 7.08439 6.1649C7.08439 6.69345 6.66245 7.11628 6.13502 7.11628ZM8.77215 10.6047C9.25738 10.8372 9.76371 11.0275 10.2911 11.1543C10.27 11.4292 10.2489 11.7252 10.2489 12C10.2489 12.296 10.27 12.5708 10.2911 12.8457C9.76371 12.9725 9.25738 13.1628 8.77215 13.3953C8.58228 12.9725 8.47679 12.4863 8.47679 11.9789C8.47679 11.5137 8.58228 11.0486 8.77215 10.6047ZM6.13502 18.8499C5.60759 18.8499 5.18565 18.4271 5.18565 17.8985C5.18565 17.37 5.60759 16.9471 6.13502 16.9471C6.66245 16.9471 7.08439 17.37 7.08439 17.8985C7.08439 18.4271 6.66245 18.8499 6.13502 18.8499ZM9.173 14.1142C9.57384 13.9239 9.97468 13.7759 10.3755 13.6702C10.481 14.3256 10.6498 14.8964 10.8608 15.3615C10.1646 15.1078 9.57384 14.685 9.173 14.1142ZM12.9494 20.3298C12.9494 20.8584 12.5274 21.2812 12 21.2812C11.4726 21.2812 11.0506 20.8584 11.0506 20.3298C11.0506 19.8013 11.4726 19.3784 12 19.3784C12.5274 19.3784 12.9494 19.8013 12.9494 20.3298ZM13.1392 15.3615C13.3502 14.8964 13.519 14.3256 13.6245 13.6702C14.0464 13.7759 14.4473 13.9239 14.827 14.1142C14.4262 14.685 13.8354 15.1078 13.1392 15.3615ZM17.865 16.926C18.3924 16.926 18.8143 17.3488 18.8143 17.8774C18.8143 18.4059 18.3924 18.8288 17.865 18.8288C17.3376 18.8288 16.9156 18.4059 16.9156 17.8774C16.9156 17.3488 17.3376 16.926 17.865 16.926ZM15.2278 13.4376C14.7426 13.2051 14.2363 13.0148 13.7089 12.8879C13.73 12.6131 13.7511 12.3171 13.7511 12.0423C13.7511 11.7463 13.73 11.4715 13.7089 11.1966C14.2363 11.0698 14.7426 10.8795 15.2278 10.6469C15.4177 11.0698 15.5232 11.556 15.5232 12.0634C15.5232 12.5285 15.4177 12.9937 15.2278 13.4376ZM20.2911 12.9725C19.7637 12.9725 19.3418 12.5497 19.3418 12.0211C19.3418 11.4926 19.7637 11.0698 20.2911 11.0698C20.8186 11.0698 21.2405 11.4926 21.2405 12.0211C21.2405 12.5497 20.8186 12.9725 20.2911 12.9725Z" fill="white"/>
</svg>