<svg width="40" height="40" viewBox="0 0 40 40" fill="none" xmlns="http://www.w3.org/2000/svg">
<path fill-rule="evenodd" clip-rule="evenodd" d="M11.9257 5.84913C9.23761 6.04923 7.156 8.13861 6.4347 10.3025C6.02035 11.5456 5.83337 12.5178 5.83337 13.5673C5.83337 14.637 6.02737 15.8531 6.46152 17.5897C6.89966 19.3422 7.31398 20.7724 8.12636 22.2956C8.93924 23.8198 10.1841 25.4968 12.3438 27.6564C14.5034 29.8161 16.1804 31.061 17.7046 31.8738C19.2278 32.6862 20.658 33.1005 22.4105 33.5387C24.1471 33.9728 25.3632 34.1668 26.4329 34.1668C27.4824 34.1668 28.4546 33.9799 29.6977 33.5655C31.8616 32.8442 33.951 30.7626 34.1511 28.0745C33.9997 27.9628 33.7872 27.8225 33.512 27.6574C32.7997 27.23 31.8151 26.7231 30.7779 26.2318C29.7452 25.7426 28.6886 25.2823 27.8435 24.9469C27.4195 24.7786 27.0615 24.6469 26.7927 24.5594C26.6575 24.5153 26.5586 24.487 26.4929 24.4709L26.487 24.4695C26.3521 24.4828 26.1484 24.5446 25.851 24.7212C25.5101 24.9236 25.1369 25.2213 24.7051 25.5992C24.5574 25.7284 24.3908 25.8781 24.2166 26.0347C23.9339 26.2889 23.6312 26.561 23.3571 26.7922C22.8906 27.1858 22.3569 27.5949 21.7791 27.8838C20.954 28.2963 20.0905 28.2265 19.3873 28.0216C18.685 27.817 18.0182 27.4445 17.4532 27.0633C16.3305 26.3059 15.3752 25.3506 15.022 24.9973L14.953 24.9283C14.1099 24.0854 13.138 23.1138 12.5072 22.1045C11.841 21.0385 11.3951 19.6637 12.1164 18.2211C12.4053 17.6433 12.8144 17.1096 13.208 16.6431C13.4392 16.369 13.7113 16.0663 13.9655 15.7836C14.1221 15.6094 14.2718 15.4428 14.401 15.2951C14.7789 14.8633 15.0766 14.4901 15.279 14.1492C15.4556 13.8518 15.5175 13.6481 15.5307 13.5132L15.5293 13.5073C15.5132 13.4416 15.4849 13.3427 15.4408 13.2075C15.3533 12.9387 15.2216 12.5807 15.0533 12.1567C14.7179 11.3116 14.2576 10.255 13.7685 9.22232C13.2771 8.18509 12.7702 7.20053 12.3428 6.48823C12.1777 6.21297 12.0374 6.00047 11.9257 5.84913ZM15.5405 13.5589L15.5398 13.5545L15.5405 13.5589ZM26.4413 24.4597L26.4457 24.4604L26.4413 24.4597ZM4.06299 9.51195C5.07899 6.46394 8.13963 3.3335 12.3472 3.3335C12.8334 3.3335 13.1792 3.58344 13.3154 3.6904C13.4891 3.82691 13.6375 3.9886 13.7559 4.13187C13.997 4.42343 14.2459 4.80097 14.4866 5.20199C14.9742 6.01473 15.5209 7.08202 16.0278 8.15211C16.5368 9.22673 17.0192 10.3329 17.3771 11.2346C17.5554 11.6841 17.7079 12.0955 17.8179 12.4333C17.8727 12.6014 17.9214 12.765 17.9578 12.9137C17.9878 13.0364 18.0336 13.2421 18.0336 13.4564C18.0336 14.2118 17.7521 14.8807 17.4287 15.4255C17.1043 15.9719 16.681 16.486 16.2825 16.9414C16.0999 17.1501 15.9323 17.336 15.7717 17.5142C15.5476 17.7629 15.3371 17.9964 15.1187 18.2553C14.7637 18.6761 14.5072 19.0297 14.3525 19.3392C14.1865 19.6711 14.1843 20.0709 14.6272 20.7795C15.0906 21.521 15.8621 22.3019 16.7802 23.22C17.1271 23.5669 17.9391 24.3755 18.8513 24.9908C19.309 25.2996 19.7323 25.5182 20.0865 25.6214C20.4398 25.7243 20.5988 25.6788 20.661 25.6477C20.9706 25.493 21.3241 25.2365 21.7449 24.8815C22.0038 24.6631 22.2373 24.4526 22.486 24.2285C22.6642 24.0679 22.8501 23.9003 23.0588 23.7177C23.5142 23.3192 24.0284 22.8959 24.5747 22.5716C25.1195 22.2481 25.7884 21.9666 26.5438 21.9666C26.7581 21.9666 26.9639 22.0124 27.0865 22.0424C27.2352 22.0788 27.3988 22.1275 27.5669 22.1823C27.9047 22.2923 28.3161 22.4448 28.7656 22.6231C29.6673 22.981 30.7735 23.4634 31.8481 23.9724C32.9182 24.4793 33.9855 25.026 34.7982 25.5137C35.1992 25.7543 35.5768 26.0032 35.8683 26.2443C36.0116 26.3627 36.1733 26.5111 36.3098 26.6848C36.4168 26.821 36.6667 27.1668 36.6667 27.653C36.6667 31.8606 33.5363 34.9212 30.4883 35.9372C29.0694 36.4102 27.8235 36.6668 26.4329 36.6668C25.0626 36.6668 23.6167 36.4172 21.8042 35.964C20.0076 35.5149 18.3322 35.0419 16.5281 34.0797C14.7249 33.118 12.8528 31.701 10.576 29.4242C8.29916 27.1474 6.88218 25.2753 5.92048 23.4721C4.95829 21.668 4.48532 19.9926 4.03616 18.196C3.58302 16.3835 3.33337 14.9376 3.33337 13.5673C3.33337 12.1768 3.59005 10.9308 4.06299 9.51195Z" fill="url(#paint0_linear_9846_4911)"/>
<defs>
<linearGradient id="paint0_linear_9846_4911" x1="6.33742" y1="33.3282" x2="44.5533" y2="15.4175" gradientUnits="userSpaceOnUse">
<stop stop-color="#C62052"/>
<stop offset="0.78" stop-color="#280071"/>
</linearGradient>
</defs>
</svg>