<svg width="16" height="16" viewBox="0 0 16 16" fill="none" xmlns="http://www.w3.org/2000/svg">
<path fill-rule="evenodd" clip-rule="evenodd" d="M4.77091 2.33829C3.69568 2.41832 2.86303 3.25408 2.57451 4.11964C2.40877 4.61686 2.33398 5.00576 2.33398 5.42556C2.33398 5.85344 2.41158 6.33986 2.58524 7.0345C2.7605 7.73552 2.92622 8.30759 3.25118 8.91688C3.57633 9.52654 4.07429 10.1974 4.93814 11.0612C5.80199 11.9251 6.47281 12.423 7.08247 12.7482C7.69176 13.0731 8.26383 13.2389 8.96484 13.4141C9.65949 13.5878 10.1459 13.6654 10.5738 13.6654C10.9936 13.6654 11.3825 13.5906 11.8797 13.4248C12.7453 13.1363 13.581 12.3037 13.6611 11.2284C13.6005 11.1837 13.5155 11.1276 13.4054 11.0616C13.1205 10.8906 12.7267 10.6879 12.3118 10.4913C11.8987 10.2957 11.4761 10.1115 11.138 9.97738C10.9684 9.91008 10.8252 9.8574 10.7177 9.82238C10.6636 9.80477 10.6241 9.79342 10.5978 9.787C10.597 9.7868 10.5962 9.78661 10.5954 9.78643C10.5415 9.79173 10.46 9.81649 10.3411 9.88711C10.2047 9.96808 10.0554 10.0871 9.88266 10.2383C9.82359 10.29 9.75695 10.3499 9.68729 10.4125C9.57418 10.5142 9.4531 10.623 9.34347 10.7155C9.15687 10.873 8.94338 11.0366 8.71227 11.1521C8.38224 11.3172 8.03682 11.2892 7.75554 11.2073C7.47465 11.1254 7.2079 10.9764 6.98191 10.824C6.53283 10.521 6.15071 10.1389 6.00944 9.99757L5.98182 9.96995C5.64458 9.63279 5.25583 9.24414 5.00351 8.84044C4.73702 8.41404 4.55868 7.86412 4.8472 7.28708C4.96276 7.05597 5.12638 6.84248 5.28382 6.65588C5.37633 6.54625 5.48517 6.42516 5.58684 6.31206C5.64947 6.24239 5.70937 6.17576 5.76105 6.11669C5.91221 5.94394 6.03127 5.79467 6.11224 5.6583C6.18286 5.53936 6.20762 5.45786 6.21292 5.40391C6.21274 5.40316 6.21255 5.40238 6.21235 5.40157C6.20592 5.37528 6.19458 5.33571 6.17697 5.28164C6.14195 5.17413 6.08927 5.03092 6.02197 4.86133C5.88781 4.52326 5.70368 4.10064 5.50801 3.68756C5.31149 3.27267 5.10871 2.87884 4.93776 2.59393C4.8717 2.48382 4.81561 2.39882 4.77091 2.33829ZM6.21684 5.42219C6.21683 5.42217 6.21672 5.42157 6.21655 5.42043L6.21684 5.42219ZM10.5772 9.78251C10.5772 9.7825 10.5778 9.78259 10.5789 9.7828L10.5772 9.78251ZM1.62583 3.80341C2.03223 2.58421 3.25649 1.33203 4.9395 1.33203C5.13401 1.33203 5.27231 1.43201 5.32678 1.47479C5.39629 1.5294 5.45562 1.59407 5.503 1.65138C5.59942 1.768 5.69901 1.91902 5.79525 2.07943C5.99031 2.40452 6.209 2.83144 6.41175 3.25947C6.61537 3.68932 6.80833 4.13181 6.95146 4.49248C7.0228 4.67226 7.0838 4.83683 7.1278 4.97194C7.1497 5.03918 7.16921 5.10463 7.18375 5.16412C7.19574 5.21317 7.21408 5.29546 7.21408 5.38119C7.21408 5.68334 7.10148 5.95093 6.9721 6.16884C6.84234 6.38737 6.67303 6.59302 6.51363 6.77519C6.4406 6.85866 6.37355 6.93305 6.30931 7.00433C6.21967 7.10379 6.13549 7.1972 6.04811 7.30075C5.9061 7.46907 5.80353 7.61049 5.74163 7.73429C5.67523 7.86709 5.67436 8.027 5.85151 8.31044C6.03688 8.60704 6.34549 8.91941 6.71272 9.28663C6.85146 9.42537 7.17629 9.74882 7.54117 9.99497C7.72422 10.1185 7.89357 10.2059 8.03525 10.2472C8.17654 10.2883 8.24016 10.2702 8.26505 10.2577C8.38885 10.1958 8.53028 10.0933 8.6986 9.95123C8.80215 9.86386 8.89556 9.77968 8.99502 9.69003C9.0663 9.62579 9.14069 9.55875 9.22416 9.48572C9.40632 9.32632 9.61198 9.15701 9.83051 9.02725C10.0484 8.89787 10.316 8.78527 10.6182 8.78527C10.7039 8.78527 10.7862 8.80361 10.8352 8.8156C10.8947 8.83014 10.9602 8.84964 11.0274 8.87155C11.1625 8.91555 11.3271 8.97655 11.5069 9.04789C11.8675 9.19102 12.31 9.38398 12.7399 9.5876C13.1679 9.79035 13.5948 10.009 13.9199 10.2041C14.0803 10.3003 14.2313 10.3999 14.348 10.4963C14.4053 10.5437 14.47 10.6031 14.5246 10.6726C14.5673 10.727 14.6673 10.8653 14.6673 11.0598C14.6673 12.7429 13.4151 13.9671 12.1959 14.3735C11.6284 14.5627 11.13 14.6654 10.5738 14.6654C10.0257 14.6654 9.44733 14.5655 8.72231 14.3842C8.00366 14.2046 7.33352 14.0154 6.61188 13.6305C5.8906 13.2458 5.14176 12.679 4.23103 11.7683C3.3203 10.8576 2.75351 10.1087 2.36883 9.38747C1.98395 8.66582 1.79476 7.99569 1.6151 7.27704C1.43384 6.55202 1.33398 5.97369 1.33398 5.42556C1.33398 4.86933 1.43665 4.37094 1.62583 3.80341ZM9.4247 1.88258C9.49479 1.61548 9.76814 1.45577 10.0352 1.52586C11.1219 1.81102 12.0945 2.37412 12.867 3.14658L12.8687 3.14836C13.6315 3.91888 14.1957 4.88382 14.4741 5.9665C14.5429 6.23395 14.3818 6.5065 14.1144 6.57527C13.8469 6.64404 13.5744 6.48299 13.5056 6.21554C13.273 5.31112 12.8012 4.50181 12.159 3.85281C11.5119 3.20607 10.6961 2.73313 9.78142 2.49312C9.51432 2.42303 9.35461 2.14968 9.4247 1.88258ZM8.74593 4.48718C8.86333 4.23724 9.16112 4.12979 9.41106 4.24719C9.93005 4.49096 10.4049 4.82241 10.8031 5.22812C11.1926 5.6181 11.516 6.08455 11.7523 6.58864C11.8695 6.83867 11.7618 7.13638 11.5118 7.25359C11.2618 7.37079 10.9641 7.26311 10.8469 7.01307C10.6576 6.60932 10.3995 6.2388 10.0942 5.9335L10.0907 5.93C9.77947 5.6125 9.40315 5.34829 8.98592 5.15232C8.73598 5.03492 8.62853 4.73713 8.74593 4.48718Z" fill="#514FA1"/>
</svg>