<svg width="18" height="18" viewBox="0 0 18 18" fill="none" xmlns="http://www.w3.org/2000/svg">
<path fill-rule="evenodd" clip-rule="evenodd" d="M4.96285 1.9245C3.61881 2.02455 2.578 3.06925 2.21735 4.1512C2.01017 4.77273 1.91669 5.25885 1.91669 5.78359C1.91669 6.31845 2.01368 6.92648 2.23076 7.79478C2.44983 8.67105 2.65699 9.38614 3.06318 10.1477C3.46962 10.9098 4.09207 11.7484 5.17188 12.8282C6.25169 13.908 7.09022 14.5304 7.85229 14.9369C8.61391 15.3431 9.32899 15.5502 10.2053 15.7693C11.0736 15.9864 11.6816 16.0834 12.2164 16.0834C12.7412 16.0834 13.2273 15.9899 13.8488 15.7827C14.9308 15.422 15.9755 14.3812 16.0755 13.0372C15.9999 12.9813 15.8936 12.9112 15.756 12.8286C15.3998 12.6149 14.9076 12.3615 14.3889 12.1158C13.8726 11.8712 13.3443 11.6411 12.9217 11.4734C12.7097 11.3893 12.5307 11.3234 12.3963 11.2796C12.3288 11.2576 12.2793 11.2434 12.2464 11.2354L12.2435 11.2347C12.1761 11.2413 12.0742 11.2723 11.9255 11.3605C11.755 11.4618 11.5685 11.6106 11.3525 11.7995C11.2787 11.8641 11.1954 11.939 11.1083 12.0173C10.9669 12.1444 10.8156 12.2804 10.6785 12.3961C10.4453 12.5929 10.1784 12.7974 9.88954 12.9418C9.47701 13.1481 9.04523 13.1132 8.69363 13.0107C8.34252 12.9084 8.00908 12.7222 7.72659 12.5316C7.16524 12.1529 6.6876 11.6752 6.51101 11.4986L6.47649 11.4641C6.05493 11.0426 5.56899 10.5568 5.25359 10.0522C4.92048 9.5192 4.69756 8.8318 5.05821 8.1105C5.20266 7.82161 5.40718 7.55474 5.60399 7.3215C5.71961 7.18445 5.85567 7.0331 5.98276 6.89172C6.06104 6.80464 6.13592 6.72135 6.20052 6.64751C6.38947 6.43157 6.53829 6.24499 6.63951 6.07452C6.72778 5.92585 6.75873 5.82398 6.76535 5.75654L6.76465 5.75361C6.75661 5.72075 6.74243 5.67128 6.72042 5.6037C6.67665 5.46931 6.61079 5.2903 6.52667 5.07831C6.35897 4.65573 6.12881 4.12745 5.88423 3.6111C5.63856 3.09248 5.3851 2.6002 5.17141 2.24405C5.08883 2.10643 5.01872 2.00017 4.96285 1.9245ZM6.77026 5.77939L6.76989 5.77718L6.77026 5.77939ZM12.2207 11.2298L12.2229 11.2302L12.2207 11.2298ZM1.03149 3.75592C1.5395 2.23191 3.06982 0.666687 5.17358 0.666687C5.41672 0.666687 5.5896 0.791661 5.65768 0.845138C5.74457 0.913394 5.81874 0.99424 5.87796 1.06587C5.99849 1.21165 6.12297 1.40043 6.24328 1.60094C6.4871 2.0073 6.76046 2.54095 7.0139 3.07599C7.26841 3.6133 7.50962 4.16641 7.68853 4.61725C7.7777 4.84197 7.85395 5.04768 7.90896 5.21657C7.93634 5.30062 7.96072 5.38243 7.97889 5.4568C7.99388 5.51811 8.01681 5.62098 8.01681 5.72814C8.01681 6.10582 7.87605 6.44031 7.71433 6.71269C7.55213 6.98586 7.34049 7.24293 7.14124 7.47064C7.04995 7.57497 6.96615 7.66796 6.88585 7.75706C6.77379 7.88139 6.66856 7.99815 6.55935 8.12758C6.38183 8.33798 6.25362 8.51477 6.17624 8.66952C6.09325 8.83551 6.09215 9.03539 6.31359 9.38969C6.54531 9.76045 6.93107 10.1509 7.3901 10.6099C7.56353 10.7834 7.96957 11.1877 8.42566 11.4954C8.65448 11.6497 8.86616 11.759 9.04327 11.8106C9.21989 11.8621 9.29941 11.8394 9.33052 11.8238C9.48528 11.7464 9.66206 11.6182 9.87246 11.4407C10.0019 11.3315 10.1187 11.2262 10.243 11.1142C10.3321 11.0339 10.4251 10.9501 10.5294 10.8588C10.7571 10.6596 11.0142 10.4479 11.2873 10.2857C11.5597 10.124 11.8942 9.98323 12.2719 9.98323C12.3791 9.98323 12.4819 10.0062 12.5432 10.0211C12.6176 10.0393 12.6994 10.0637 12.7835 10.0911C12.9524 10.1461 13.1581 10.2223 13.3828 10.3115C13.8336 10.4904 14.3867 10.7316 14.924 10.9861C15.4591 11.2396 15.9927 11.5129 16.3991 11.7568C16.5996 11.8771 16.7884 12.0016 16.9342 12.1221C17.0058 12.1813 17.0866 12.2555 17.1549 12.3424C17.2084 12.4104 17.3334 12.5833 17.3334 12.8265C17.3334 14.9302 15.7681 16.4605 14.2441 16.9685C13.5347 17.205 12.9117 17.3334 12.2164 17.3334C11.5313 17.3334 10.8084 17.2085 9.90209 16.982C9.00379 16.7574 8.16611 16.5209 7.26406 16.0398C6.36246 15.5589 5.42641 14.8505 4.28799 13.712C3.14958 12.5736 2.44109 11.6376 1.96024 10.736C1.47914 9.83393 1.24266 8.99625 1.01808 8.09795C0.791512 7.19167 0.666687 6.46876 0.666687 5.78359C0.666687 5.08832 0.795024 4.46532 1.03149 3.75592Z" fill="white"/>
</svg>