<svg width="24" height="24" viewBox="0 0 24 24" fill="none" xmlns="http://www.w3.org/2000/svg">
<g clip-path="url(#clip0_6785_34587)">
<path d="M5.39687 13.9562H7.60625V14C7.60625 14.2938 7.81875 14.5406 8.1125 14.5875L8.67188 14.675C8.7375 14.8875 8.82188 15.0938 8.92812 15.2875L8.5875 15.7469C8.51562 15.8469 8.47812 15.9594 8.47187 16.0781C8.46562 16.2437 8.52813 16.4 8.64688 16.5187L8.68125 16.5531L7.05 18.2C6.99375 18.2563 6.9625 18.3344 6.9625 18.4125V19.925C6.525 20.0562 6.20625 20.4562 6.20625 20.9375C6.20625 21.5219 6.68125 21.9969 7.26562 21.9969C7.85 21.9969 8.325 21.5219 8.325 20.9375C8.325 20.4594 8.00312 20.0562 7.56875 19.925V18.5344L9.1125 16.9781L9.13438 17C9.34062 17.2094 9.675 17.2344 9.90937 17.0594L10.3688 16.725C10.5625 16.8281 10.7656 16.9125 10.9781 16.9781L11.0625 17.5469C11.1125 17.8344 11.3625 18.0469 11.6531 18.0469H11.6938V19.9219C11.25 20.05 10.925 20.4531 10.925 20.9375C10.925 21.5219 11.4 21.9969 11.9844 21.9969C12.5688 21.9969 13.0437 21.5219 13.0437 20.9375C13.0437 20.4625 12.7281 20.0656 12.2969 19.9312V18.0469H12.3344C12.6312 18.0469 12.8844 17.8281 12.925 17.5406L13.0125 16.9781C13.2219 16.9125 13.4281 16.8281 13.6219 16.725L14.0844 17.0656C14.325 17.2375 14.6562 17.2062 14.85 17.0031L14.875 16.9781L16.4187 18.5375V19.9281C15.9812 20.0594 15.6625 20.4594 15.6625 20.9406C15.6625 21.525 16.1375 22 16.7219 22C17.3063 22 17.7812 21.525 17.7812 20.9406C17.7812 20.4625 17.4594 20.0594 17.025 19.9281V18.4156C17.025 18.3344 16.9937 18.2594 16.9375 18.2031L15.3063 16.5563L15.3438 16.5187C15.5031 16.3531 15.5562 16.1156 15.4812 15.9094C15.4594 15.8375 15.425 15.7813 15.4 15.7469L15.0625 15.2906C15.1656 15.0938 15.2531 14.8906 15.3187 14.6781L15.8844 14.5906C16.175 14.5437 16.3875 14.2969 16.3875 14.0031V13.9594H17.9156C20.1656 13.9594 21.9938 12.1312 21.9938 9.88437C21.9938 7.93125 20.5938 6.25313 18.7 5.88438C18.5187 3.68438 16.7 2 14.4625 2C12.7406 2 11.2094 3.02813 10.5469 4.59063C10.0875 4.36875 9.58125 4.25312 9.06875 4.25312C7.35313 4.25312 5.93438 5.5125 5.70312 7.17812C5.6 7.16875 5.5 7.16563 5.39375 7.16563C3.525 7.1625 2 8.6875 2 10.5594C2 12.4312 3.525 13.9562 5.39687 13.9562ZM7.72187 20.9406C7.72187 21.1906 7.51875 21.3938 7.26875 21.3938C7.01875 21.3938 6.81563 21.1906 6.81563 20.9406C6.81563 20.6906 7.01875 20.4875 7.26875 20.4875C7.51875 20.4844 7.72187 20.6875 7.72187 20.9406ZM12.4437 20.9406C12.4437 21.1906 12.2406 21.3938 11.9906 21.3938C11.7406 21.3938 11.5375 21.1906 11.5375 20.9406C11.5375 20.6906 11.7406 20.4875 11.9906 20.4875C12.2406 20.4875 12.4437 20.6875 12.4437 20.9406ZM17.1875 20.9406C17.1875 21.1906 16.9844 21.3938 16.7344 21.3938C16.4844 21.3938 16.2812 21.1906 16.2812 20.9406C16.2812 20.6906 16.4844 20.4875 16.7344 20.4875C16.9844 20.4875 17.1875 20.6875 17.1875 20.9406ZM14.9156 16.0969C14.9094 16.0844 14.9062 16.0719 14.9031 16.0562C14.9062 16.075 14.9156 16.0719 14.9219 16.0906L14.9156 16.0969ZM15.0406 14.1063C14.9187 14.125 14.8219 14.2156 14.7937 14.3312C14.7219 14.6187 14.6062 14.8938 14.4531 15.15C14.3906 15.2563 14.3969 15.3875 14.4688 15.4875L14.9187 16.0969L14.45 16.5781L13.8313 16.125C13.7344 16.0531 13.6 16.0469 13.4969 16.1094C13.2406 16.2625 12.9656 16.375 12.6781 16.4469C12.5594 16.475 12.4688 16.575 12.45 16.6938L12.3438 17.4406L11.6656 17.4531L11.5531 16.6969C11.5344 16.575 11.4438 16.475 11.325 16.4469C11.0312 16.375 10.7563 16.2625 10.5125 16.1094C10.4625 16.0781 10.4062 16.0625 10.35 16.0625C10.2875 16.0625 10.225 16.0812 10.1719 16.1219L9.56562 16.575L9.08125 16.1031L9.53438 15.4875C9.60625 15.3875 9.6125 15.2531 9.55 15.15C9.39687 14.9 9.28125 14.625 9.20937 14.3344C9.18125 14.2156 9.08125 14.125 8.9625 14.1094L8.21562 14.0031L8.20938 13.3219L8.9625 13.2063C9.08438 13.1875 9.18125 13.0969 9.20937 12.9781C9.28125 12.6875 9.39687 12.4125 9.55 12.1625C9.61562 12.0563 9.60938 11.9219 9.53438 11.825L9.07812 11.225L9.55312 10.7375L10.1687 11.1906C10.2688 11.2625 10.4 11.2688 10.5062 11.2062C10.6312 11.1312 11.1906 10.9 11.325 10.8687C11.4469 10.8406 11.5375 10.7406 11.5562 10.6187L11.6594 9.87188L12.3375 9.86562L12.4531 10.6219C12.4719 10.7437 12.5625 10.8438 12.6812 10.8719C12.9656 10.9375 13.2406 11.0531 13.5 11.2094C13.6062 11.2719 13.7375 11.2688 13.8375 11.1938L14.4344 10.7406L14.9219 11.2125L14.4688 11.8281C14.3969 11.9281 14.3906 12.0625 14.4531 12.1656C14.6094 12.4187 14.7219 12.6937 14.7937 12.9812C14.8219 13.1 14.9219 13.1906 15.0406 13.2094L15.7875 13.325L15.7969 13.9938L15.0406 14.1063ZM5.39687 7.76875C5.57812 7.76875 5.75312 7.78438 5.92188 7.81875C6.00938 7.83438 6.09688 7.8125 6.16875 7.75938C6.2375 7.70312 6.28125 7.62187 6.28438 7.53437C6.34375 6.03437 7.56875 4.85938 9.07187 4.85938C9.59687 4.85938 10.1062 5.00625 10.55 5.28438C10.6281 5.33438 10.725 5.34375 10.8125 5.3125C10.9 5.28125 10.9688 5.20937 10.9969 5.12187C11.4906 3.61875 12.8813 2.60938 14.4625 2.60938C16.4531 2.60938 18.0562 4.16562 18.1156 6.15312C18.1187 6.30312 18.2313 6.425 18.3781 6.44375C20.0969 6.66875 21.3938 8.14687 21.3938 9.88125C21.3938 11.7937 19.8344 13.35 17.9219 13.35H16.3938V13.3094C16.3938 13.0187 16.1781 12.7688 15.8906 12.7219L15.3281 12.6344C15.2625 12.4219 15.1781 12.2188 15.0719 12.0219L15.4062 11.5656C15.5844 11.3281 15.5594 10.9937 15.35 10.7906L14.8656 10.3094C14.6625 10.0969 14.3281 10.0687 14.0906 10.2437L13.6344 10.5812C13.4344 10.475 13.2312 10.3906 13.0187 10.3281L12.9344 9.77188C12.8938 9.48125 12.6406 9.25937 12.3438 9.25937H11.6562C11.3625 9.25937 11.1156 9.47188 11.0625 9.76875L10.9812 10.3281C10.8938 10.3562 10.4563 10.5344 10.3688 10.5812L9.90937 10.2437C9.66875 10.0687 9.34375 10.0969 9.1375 10.3062L8.65313 10.7906C8.44063 10.9937 8.4125 11.3313 8.59062 11.5688L8.92812 12.025C8.825 12.2188 8.7375 12.425 8.67188 12.6375L8.1125 12.725C7.825 12.7688 7.60625 13.0219 7.60625 13.3125V13.3531H5.39687C3.85938 13.3531 2.60625 12.1 2.60625 10.5625C2.60625 9.025 3.85938 7.76875 5.39687 7.76875Z" fill="#673391" stroke="#673391" stroke-width="0.2"/>
<path d="M12.0094 11.9258C11.0469 11.9258 10.2656 12.707 10.2656 13.6695C10.2656 14.632 11.0469 15.4133 12.0094 15.4133C12.9719 15.4133 13.7531 14.632 13.7531 13.6695C13.7531 12.7102 12.9719 11.9258 12.0094 11.9258ZM12.0094 14.807C11.3812 14.807 10.8719 14.2977 10.8719 13.6695C10.8719 13.0414 11.3812 12.532 12.0094 12.532C12.6375 12.532 13.1469 13.0414 13.1469 13.6695C13.1469 14.2977 12.6375 14.807 12.0094 14.807Z" fill="#673391"/>
</g>
<defs>
<clipPath id="clip0_6785_34587">
<rect width="20" height="20" fill="white" transform="translate(2 2)"/>
</clipPath>
</defs>
</svg>