<svg width="24" height="24" viewBox="0 0 24 24" fill="none" xmlns="http://www.w3.org/2000/svg">
<g clip-path="url(#clip0_6785_34547)">
<path d="M18.2199 10.565C18.848 10.565 19.4699 10.4413 20.0501 10.2009C20.6304 9.96058 21.1576 9.6083 21.6017 9.16421C22.0458 8.72011 22.398 8.19289 22.6384 7.61266C22.8787 7.03242 23.0024 6.41052 23.0024 5.78248C23.0024 5.15443 22.8787 4.53254 22.6384 3.9523C22.398 3.37206 22.0458 2.84485 21.6017 2.40075C21.1576 1.95666 20.6304 1.60438 20.0501 1.36404C19.4699 1.1237 18.848 1 18.2199 1C16.9515 1 15.7351 1.50386 14.8382 2.40075C13.9413 3.29764 13.4375 4.51409 13.4375 5.78248C13.4375 7.05087 13.9413 8.26732 14.8382 9.16421C15.7351 10.0611 16.9515 10.565 18.2199 10.565Z" stroke="#673391" stroke-linecap="round" stroke-linejoin="round"/>
<path d="M7.69547 23.0003C9.47122 23.0003 11.1742 22.2949 12.4299 21.0393C13.6855 19.7836 14.3909 18.0806 14.3909 16.3048C14.3909 14.5291 13.6855 12.8261 12.4299 11.5704C11.1742 10.3148 9.47122 9.60938 7.69547 9.60938C5.91972 9.60938 4.2167 10.3148 2.96106 11.5704C1.70541 12.8261 1 14.5291 1 16.3048C1 18.0806 1.70541 19.7836 2.96106 21.0393C4.2167 22.2949 5.91972 23.0003 7.69547 23.0003Z" stroke="#673391" stroke-linecap="round" stroke-linejoin="round"/>
<path d="M4.875 13.875H10.0638" stroke="#673391" stroke-linecap="round" stroke-linejoin="round"/>
<path d="M4.875 15.9141H10.0638" stroke="#673391" stroke-linecap="round" stroke-linejoin="round"/>
<path d="M7.09969 13.875C7.59386 13.9985 8.58219 14.4309 8.58219 15.7281C8.58219 17.9519 5.61719 17.9519 5.61719 17.9519C5.61719 17.9519 7.09969 19.2491 9.32345 19.8051" stroke="#673391" stroke-linecap="round" stroke-linejoin="round"/>
<path d="M17.1112 6.8921C17.111 7.11163 17.176 7.32628 17.2978 7.50889C17.4197 7.6915 17.5929 7.83386 17.7957 7.91795C17.9985 8.00205 18.2217 8.0241 18.437 7.98132C18.6523 7.93854 18.8501 7.83285 19.0053 7.67762C19.1606 7.52239 19.2663 7.3246 19.309 7.10928C19.3518 6.89397 19.3298 6.6708 19.2457 6.46802C19.1616 6.26524 19.0192 6.09196 18.8366 5.97011C18.654 5.84827 18.4393 5.78333 18.2198 5.78352C18.0003 5.78371 17.7856 5.71878 17.603 5.59693C17.4204 5.47509 17.2781 5.30181 17.194 5.09903C17.1099 4.89625 17.0878 4.67308 17.1306 4.45776C17.1734 4.24244 17.2791 4.04466 17.4343 3.88943C17.5895 3.7342 17.7873 3.62851 18.0026 3.58572C18.218 3.54294 18.4411 3.565 18.6439 3.64909C18.8467 3.73319 19.02 3.87555 19.1418 4.05816C19.2636 4.24077 19.3286 4.45542 19.3284 4.67494" stroke="#673391" stroke-linecap="round" stroke-linejoin="round"/>
<path d="M18.2188 8V8.73937" stroke="#673391" stroke-linecap="round" stroke-linejoin="round"/>
<path d="M18.2188 2.82617V3.5665" stroke="#673391" stroke-linecap="round" stroke-linejoin="round"/>
<path d="M9.13405 1.47852C7.86565 1.47852 6.64921 1.98238 5.75232 2.87927C4.85543 3.77616 4.35156 4.99261 4.35156 6.261V7.2175" stroke="#673391" stroke-linecap="round" stroke-linejoin="round"/>
<path d="M15.8281 20.608C17.0965 20.608 18.3129 20.1042 19.2098 19.2073C20.1067 18.3104 20.6106 17.094 20.6106 15.8256V14.8691" stroke="#673391" stroke-linecap="round" stroke-linejoin="round"/>
<path d="M2.4375 5.30469L4.35049 7.21768L6.26348 5.30469" stroke="#673391" stroke-linecap="round" stroke-linejoin="round"/>
<path d="M18.6953 16.7821L20.6083 14.8691L22.5213 16.7821" stroke="#673391" stroke-linecap="round" stroke-linejoin="round"/>
</g>
<defs>
<clipPath id="clip0_6785_34547">
<rect width="24" height="24" fill="white"/>
</clipPath>
</defs>
</svg>