<svg width="25" height="24" viewBox="0 0 25 24" fill="none" xmlns="http://www.w3.org/2000/svg">
<path d="M18.7199 10.565C19.348 10.565 19.9699 10.4413 20.5501 10.2009C21.1304 9.96058 21.6576 9.6083 22.1017 9.16421C22.5458 8.72011 22.898 8.19289 23.1384 7.61266C23.3787 7.03242 23.5024 6.41052 23.5024 5.78248C23.5024 5.15443 23.3787 4.53254 23.1384 3.9523C22.898 3.37206 22.5458 2.84485 22.1017 2.40075C21.6576 1.95666 21.1304 1.60438 20.5501 1.36404C19.9699 1.1237 19.348 1 18.7199 1C17.4515 1 16.2351 1.50386 15.3382 2.40075C14.4413 3.29764 13.9375 4.51409 13.9375 5.78248C13.9375 7.05087 14.4413 8.26732 15.3382 9.16421C16.2351 10.0611 17.4515 10.565 18.7199 10.565Z" stroke="white" stroke-linecap="round" stroke-linejoin="round"/>
<path d="M8.19547 23.0003C9.97122 23.0003 11.6742 22.2949 12.9299 21.0393C14.1855 19.7836 14.8909 18.0806 14.8909 16.3048C14.8909 14.5291 14.1855 12.8261 12.9299 11.5704C11.6742 10.3148 9.97122 9.60938 8.19547 9.60938C6.41972 9.60938 4.7167 10.3148 3.46106 11.5704C2.20541 12.8261 1.5 14.5291 1.5 16.3048C1.5 18.0806 2.20541 19.7836 3.46106 21.0393C4.7167 22.2949 6.41972 23.0003 8.19547 23.0003Z" stroke="white" stroke-linecap="round" stroke-linejoin="round"/>
<path d="M5.375 13.875H10.5638" stroke="white" stroke-linecap="round" stroke-linejoin="round"/>
<path d="M5.375 15.9141H10.5638" stroke="white" stroke-linecap="round" stroke-linejoin="round"/>
<path d="M7.59969 13.875C8.09386 13.9985 9.08219 14.4309 9.08219 15.7281C9.08219 17.9519 6.11719 17.9519 6.11719 17.9519C6.11719 17.9519 7.59969 19.2491 9.82345 19.8051" stroke="white" stroke-linecap="round" stroke-linejoin="round"/>
<path d="M17.6112 6.8921C17.611 7.11163 17.676 7.32628 17.7978 7.50889C17.9197 7.6915 18.0929 7.83386 18.2957 7.91795C18.4985 8.00205 18.7217 8.0241 18.937 7.98132C19.1523 7.93854 19.3501 7.83285 19.5053 7.67762C19.6606 7.52239 19.7663 7.3246 19.809 7.10928C19.8518 6.89397 19.8298 6.6708 19.7457 6.46802C19.6616 6.26524 19.5192 6.09196 19.3366 5.97011C19.154 5.84827 18.9393 5.78333 18.7198 5.78352C18.5003 5.78371 18.2856 5.71878 18.103 5.59693C17.9204 5.47509 17.7781 5.30181 17.694 5.09903C17.6099 4.89625 17.5878 4.67308 17.6306 4.45776C17.6734 4.24244 17.7791 4.04466 17.9343 3.88943C18.0895 3.7342 18.2873 3.62851 18.5026 3.58572C18.718 3.54294 18.9411 3.565 19.1439 3.64909C19.3467 3.73319 19.52 3.87555 19.6418 4.05816C19.7636 4.24077 19.8286 4.45542 19.8284 4.67494" stroke="white" stroke-linecap="round" stroke-linejoin="round"/>
<path d="M18.7188 8V8.73937" stroke="white" stroke-linecap="round" stroke-linejoin="round"/>
<path d="M18.7188 2.82617V3.5665" stroke="white" stroke-linecap="round" stroke-linejoin="round"/>
<path d="M9.63405 1.47852C8.36565 1.47852 7.14921 1.98238 6.25232 2.87927C5.35543 3.77616 4.85156 4.99261 4.85156 6.261V7.2175" stroke="white" stroke-linecap="round" stroke-linejoin="round"/>
<path d="M16.3281 20.608C17.5965 20.608 18.8129 20.1042 19.7098 19.2073C20.6067 18.3104 21.1106 17.094 21.1106 15.8256V14.8691" stroke="white" stroke-linecap="round" stroke-linejoin="round"/>
<path d="M2.9375 5.30469L4.85049 7.21768L6.76348 5.30469" stroke="white" stroke-linecap="round" stroke-linejoin="round"/>
<path d="M19.1953 16.7821L21.1083 14.8691L23.0213 16.7821" stroke="white" stroke-linecap="round" stroke-linejoin="round"/>
</svg>