<svg width="20" height="20" viewBox="0 0 20 20" fill="none" xmlns="http://www.w3.org/2000/svg">
<path d="M8.92004 6.60203C8.92009 6.41638 8.968 6.23388 9.05914 6.07214C9.15027 5.9104 9.28156 5.77488 9.44034 5.67867C9.59911 5.58246 9.78 5.5288 9.96556 5.52287C10.1511 5.51695 10.3351 5.55895 10.4997 5.64483C10.6642 5.73071 10.8039 5.85757 10.9052 6.01317C11.0065 6.16876 11.0659 6.34783 11.0778 6.5331C11.0897 6.71836 11.0537 6.90357 10.9731 7.07084C10.8926 7.23811 10.7703 7.3818 10.618 7.48803C10.348 7.67803 10.02 7.93103 9.75804 8.24803C9.49104 8.57003 9.25004 9.00703 9.25004 9.54803C9.25004 9.74694 9.32906 9.93771 9.46971 10.0784C9.61037 10.219 9.80113 10.298 10 10.298C10.199 10.298 10.3897 10.219 10.5304 10.0784C10.671 9.93771 10.75 9.74694 10.75 9.54803C10.75 9.47403 10.78 9.36403 10.912 9.20503C11.047 9.04303 11.244 8.88103 11.478 8.71703C11.8415 8.46298 12.1334 8.11953 12.3255 7.71982C12.5176 7.32011 12.6034 6.87763 12.5746 6.4351C12.5459 5.99256 12.4035 5.56491 12.1614 5.1934C11.9192 4.8219 11.5853 4.5191 11.192 4.31421C10.7987 4.10932 10.3593 4.00927 9.91603 4.02371C9.4728 4.03815 9.04077 4.16659 8.66164 4.39665C8.28251 4.6267 7.96908 4.95059 7.7516 5.33707C7.53412 5.72355 7.41993 6.15956 7.42004 6.60303C7.42004 6.80194 7.49906 6.99271 7.63971 7.13336C7.78037 7.27401 7.97113 7.35303 8.17004 7.35303C8.36896 7.35303 8.55972 7.27401 8.70037 7.13336C8.84103 6.99271 8.92004 6.80194 8.92004 6.60303M10 10.807C9.80113 10.807 9.61037 10.886 9.46971 11.0267C9.32906 11.1674 9.25004 11.3581 9.25004 11.557C9.25004 11.7559 9.32906 11.9467 9.46971 12.0874C9.61037 12.228 9.80113 12.307 10 12.307C10.199 12.307 10.3897 12.228 10.5304 12.0874C10.671 11.9467 10.75 11.7559 10.75 11.557C10.75 11.3581 10.671 11.1674 10.5304 11.0267C10.3897 10.886 10.199 10.807 10 10.807Z" fill="white"/>
<path fill-rule="evenodd" clip-rule="evenodd" d="M2.75 0.640015C2.15326 0.640015 1.58097 0.877068 1.15901 1.29902C0.737053 1.72098 0.5 2.29328 0.5 2.89001V18.608C0.500003 18.7528 0.541911 18.8945 0.620666 19.016C0.699421 19.1375 0.811655 19.2335 0.943821 19.2927C1.07599 19.3518 1.22244 19.3713 1.36549 19.3491C1.50854 19.3268 1.64209 19.2635 1.75 19.167L5.635 15.688H17.25C17.8467 15.688 18.419 15.451 18.841 15.029C19.2629 14.607 19.5 14.0348 19.5 13.438V2.89001C19.5 2.29328 19.2629 1.72098 18.841 1.29902C18.419 0.877068 17.8467 0.640015 17.25 0.640015H2.75ZM2 2.89001C2 2.6911 2.07902 2.50034 2.21967 2.35968C2.36032 2.21903 2.55109 2.14001 2.75 2.14001H17.25C17.4489 2.14001 17.6397 2.21903 17.7803 2.35968C17.921 2.50034 18 2.6911 18 2.89001V13.438C18 13.6369 17.921 13.8277 17.7803 13.9683C17.6397 14.109 17.4489 14.188 17.25 14.188H5.348C5.16338 14.1883 4.98535 14.2567 4.848 14.38L2 16.93V2.89001Z" fill="white"/>
</svg>