<svg width="20" height="20" viewBox="0 0 20 20" fill="none" xmlns="http://www.w3.org/2000/svg">
<path fill-rule="evenodd" clip-rule="evenodd" d="M9.97453 1.5C8.3335 1.5 6.75969 2.1519 5.59931 3.31228C4.43893 4.47266 3.78703 6.04647 3.78703 7.6875C3.78703 11.2196 2.97479 14.1362 2.25279 15.3854C2.25097 15.3886 2.25001 15.3922 2.25 15.3958C2.24999 15.3995 2.25095 15.403 2.25276 15.4062C2.25457 15.4094 2.25719 15.412 2.26034 15.4138C2.2633 15.4156 2.26665 15.4165 2.27008 15.4167H17.6806C17.6841 15.4166 17.6876 15.4156 17.6906 15.4139C17.6938 15.412 17.6964 15.4094 17.6982 15.4062C17.7 15.4031 17.701 15.3995 17.701 15.3958C17.701 15.3922 17.7 15.3886 17.6982 15.3854C16.975 14.1362 16.162 11.221 16.162 7.6875C16.162 6.04647 15.5101 4.47266 14.3498 3.31228C13.1894 2.1519 11.6156 1.5 9.97453 1.5ZM4.53865 2.25162C5.98033 0.80993 7.93568 0 9.97453 0C12.0134 0 13.9687 0.809931 15.4104 2.25162C16.8521 3.6933 17.662 5.64865 17.662 7.6875C17.662 11.0568 18.4481 13.687 18.9968 14.6346C19.13 14.8654 19.2007 15.128 19.201 15.3945C19.2012 15.661 19.1314 15.9229 18.9986 16.1539C18.8657 16.385 18.6745 16.577 18.444 16.7109C18.2136 16.8448 17.952 16.9157 17.6855 16.9167L17.6829 16.9167H13.7338C13.5867 17.654 13.2246 18.3377 12.6851 18.8772C11.9662 19.5961 10.9912 20 9.97453 20C8.95787 20 7.98284 19.5961 7.26395 18.8772C6.72446 18.3377 6.36238 17.654 6.21527 16.9167H2.2662L2.26169 16.9167C1.9955 16.9151 1.7344 16.8436 1.50448 16.7095C1.27455 16.5753 1.08386 16.3832 0.951464 16.1523C0.819066 15.9214 0.749597 15.6597 0.750002 15.3935C0.750406 15.1273 0.820669 14.8659 0.953769 14.6354C1.50166 13.6876 2.28703 11.056 2.28703 7.6875C2.28703 5.64865 3.09696 3.6933 4.53865 2.25162ZM7.76502 16.9167C7.87901 17.2525 8.06913 17.5611 8.32461 17.8166C8.7622 18.2542 9.35569 18.5 9.97453 18.5C10.5934 18.5 11.1869 18.2542 11.6244 17.8166C11.8799 17.5611 12.0701 17.2525 12.184 16.9167H7.76502Z" fill="white"/>
</svg>