<svg width="24" height="24" viewBox="0 0 24 24" fill="none" xmlns="http://www.w3.org/2000/svg">
<path d="M3.17188 12.7914H5.67188C5.74023 12.7888 5.80837 12.8007 5.87178 12.8263C5.93519 12.852 5.99242 12.8908 6.03969 12.9403C6.08696 12.9897 6.12319 13.0486 6.14598 13.1131C6.16877 13.1776 6.1776 13.2462 6.17188 13.3144V22.7234C6.1776 22.7916 6.16877 22.8602 6.14598 22.9247C6.12319 22.9892 6.08696 23.0481 6.03969 23.0975C5.99242 23.147 5.93519 23.1858 5.87178 23.2115C5.80837 23.2371 5.74023 23.249 5.67188 23.2464H3.17188" stroke="white" stroke-linecap="round" stroke-linejoin="round"/>
<path d="M10.3229 10.584L8.40087 12.977C8.27464 13.1343 8.11591 13.2625 7.93555 13.3527C7.75518 13.443 7.55746 13.4932 7.35588 13.5H6.17188" stroke="white" stroke-linecap="round" stroke-linejoin="round"/>
<path d="M6.17188 20.5302C8.31588 22.1552 10.2719 23.2461 11.5349 23.2461H17.8079C18.5679 23.2461 19.0459 23.1921 19.3759 22.2011C19.8798 19.6714 20.2291 17.1134 20.4219 14.5411C20.4219 14.0191 19.8989 13.4961 18.8539 13.4961H12.9219" stroke="white" stroke-linecap="round" stroke-linejoin="round"/>
<path d="M10.5534 12.205L9.00546 1.373C8.99443 1.29562 9.00015 1.21677 9.02223 1.14179C9.0443 1.06681 9.08222 0.997446 9.13341 0.938382C9.18461 0.879319 9.24789 0.831936 9.31897 0.799436C9.39006 0.766936 9.46729 0.750078 9.54546 0.75H17.0994" stroke="white" stroke-linecap="round" stroke-linejoin="round"/>
<path d="M13.8407 13.4991L12.9247 4.34014C12.9172 4.27017 12.9246 4.19942 12.9464 4.1325C12.9681 4.06558 13.0038 4.00401 13.051 3.95181C13.0982 3.89961 13.1559 3.85796 13.2203 3.82959C13.2847 3.80121 13.3543 3.78675 13.4247 3.78715H20.3247C20.3974 3.78628 20.4693 3.80127 20.5356 3.83106C20.6019 3.86086 20.6609 3.90475 20.7085 3.95967C20.7561 4.0146 20.7912 4.07924 20.8112 4.1491C20.8313 4.21895 20.8359 4.29234 20.8247 4.36415L19.4447 13.5641" stroke="white" stroke-linecap="round" stroke-linejoin="round"/>
<path d="M16.6953 9.37109C16.4882 9.37109 16.3203 9.2032 16.3203 8.99609C16.3203 8.78898 16.4882 8.62109 16.6953 8.62109" stroke="white"/>
<path d="M16.6953 9.37109C16.9025 9.37109 17.0703 9.2032 17.0703 8.99609C17.0703 8.78898 16.9025 8.62109 16.6953 8.62109" stroke="white"/>
</svg>