<svg width="40" height="40" viewBox="0 0 40 40" fill="none" xmlns="http://www.w3.org/2000/svg">
<path fill-rule="evenodd" clip-rule="evenodd" d="M7.33765 6.3635H32.6623L33.6364 7.34779V27.0336L32.6623 28.0179H19.4292L13.8714 33.6362L12.2078 32.9394V28.0179H7.33765L6.36363 27.0336V7.34779L7.33765 6.3635ZM19.026 26.0493H31.6883V8.33208H8.31168V26.0493H13.1818L14.1558 27.0336V30.5633L18.3364 26.3367L19.026 26.0493ZM19.026 10.3007H20.974V20.1436H19.026V10.3007ZM19.026 24.0807H20.974V22.1122H19.026V24.0807Z" fill="url(#paint0_linear_9847_4873)"/>
<path fill-rule="evenodd" clip-rule="evenodd" d="M7.24281 6.13623H32.7572L33.8636 7.25435V27.1271L32.7572 28.2452H19.5241L13.9251 33.9051L11.9805 33.0906V28.2452H7.24281L6.13635 27.1271V7.25435L7.24281 6.13623ZM7.43249 6.59078L6.5909 7.44124V26.9402L7.43249 27.7906H12.4351V32.7881L13.8177 33.3673L19.3343 27.7906H32.5675L33.4091 26.9402V7.44124L32.5675 6.59078H7.43249ZM8.0844 8.10481H31.9156V26.2766H19.0714L18.4659 26.529L13.9286 31.1162V27.1271L13.087 26.2766H8.0844V8.10481ZM8.53895 8.55936V25.822H13.2766L14.3831 26.9402V30.0103L18.2068 26.1445L18.9805 25.822H31.461V8.55936H8.53895ZM18.7987 10.0734H21.2013V20.3708H18.7987V10.0734ZM19.2532 10.5279V19.9163H20.7467V10.5279H19.2532ZM18.7987 21.8849H21.2013V24.308H18.7987V21.8849ZM19.2532 22.3394V23.8535H20.7467V22.3394H19.2532Z" fill="url(#paint1_linear_9847_4873)"/>
<defs>
<linearGradient id="paint0_linear_9847_4873" x1="8.63518" y1="31.1238" x2="40.441" y2="16.2397" gradientUnits="userSpaceOnUse">
<stop stop-color="#C62052"/>
<stop offset="0.78" stop-color="#280071"/>
</linearGradient>
<linearGradient id="paint1_linear_9847_4873" x1="8.63518" y1="31.1238" x2="40.441" y2="16.2397" gradientUnits="userSpaceOnUse">
<stop stop-color="#C62052"/>
<stop offset="0.78" stop-color="#280071"/>
</linearGradient>
</defs>
</svg>