<svg width="24" height="24" viewBox="0 0 24 24" fill="none" xmlns="http://www.w3.org/2000/svg">
<path d="M20.9788 6.50531L21.8103 6.74645C21.9588 6.80673 22.137 6.68616 22.1667 6.53545C22.2261 6.38474 22.1073 6.20388 21.9588 6.17374L20.3254 5.69146C20.1472 5.63118 19.969 5.75175 19.9393 5.9326L19.7314 7.711C19.7017 7.86171 19.8205 8.01243 19.9987 8.04257C20.1472 8.07271 20.2957 7.95214 20.3254 7.77129L20.4442 6.77659C22.731 10.2731 22.3449 14.9753 19.4641 18.0197C19.3453 18.1403 19.3453 18.3211 19.4641 18.4417C19.5829 18.5623 19.7611 18.5623 19.8799 18.4417C22.9686 15.2165 23.3844 10.243 20.9788 6.50531Z" fill="white"/>
<mask id="path-2-inside-1_6785_34487" fill="white">
<path d="M4.18091 5.23886C1.3001 8.49424 0.943709 13.2869 3.26024 16.9341L2.45836 16.6628C2.30987 16.6025 2.13167 16.693 2.07227 16.8437C2.01288 16.9944 2.10197 17.1752 2.25047 17.2355L3.91362 17.7781C4.09181 17.8384 4.27001 17.7178 4.29971 17.537L4.5076 15.6681C4.5373 15.5174 4.4185 15.3667 4.24031 15.3366C4.09181 15.3064 3.94332 15.427 3.91362 15.6078L3.82452 16.693C1.59709 13.2567 1.86438 8.73538 4.6264 5.66086C4.74519 5.54029 4.7155 5.35943 4.5967 5.23886C4.4779 5.1183 4.29971 5.1183 4.18091 5.23886Z"/>
</mask>
<path d="M4.18091 5.23886C1.3001 8.49424 0.943709 13.2869 3.26024 16.9341L2.45836 16.6628C2.30987 16.6025 2.13167 16.693 2.07227 16.8437C2.01288 16.9944 2.10197 17.1752 2.25047 17.2355L3.91362 17.7781C4.09181 17.8384 4.27001 17.7178 4.29971 17.537L4.5076 15.6681C4.5373 15.5174 4.4185 15.3667 4.24031 15.3366C4.09181 15.3064 3.94332 15.427 3.91362 15.6078L3.82452 16.693C1.59709 13.2567 1.86438 8.73538 4.6264 5.66086C4.74519 5.54029 4.7155 5.35943 4.5967 5.23886C4.4779 5.1183 4.29971 5.1183 4.18091 5.23886Z" fill="white"/>
<path d="M4.18091 5.23886L3.46859 4.53701L3.44979 4.5561L3.43204 4.57615L4.18091 5.23886ZM3.26024 16.9341L2.93977 17.8814L5.62314 18.7892L4.10436 16.398L3.26024 16.9341ZM2.45836 16.6628L2.08221 17.5894L2.10975 17.6006L2.1379 17.6101L2.45836 16.6628ZM2.25047 17.2355L1.87431 18.1621L1.9069 18.1753L1.94033 18.1862L2.25047 17.2355ZM3.91362 17.7781L4.2341 16.8308L4.22376 16.8274L3.91362 17.7781ZM4.29971 17.537L5.28649 17.699L5.2907 17.6733L5.29358 17.6475L4.29971 17.537ZM4.5076 15.6681L3.52647 15.4748L3.51837 15.5159L3.51373 15.5576L4.5076 15.6681ZM4.24031 15.3366L4.04138 16.3166L4.0574 16.3198L4.07352 16.3226L4.24031 15.3366ZM3.91362 15.6078L2.92684 15.4458L2.92028 15.4857L2.91697 15.526L3.91362 15.6078ZM3.82452 16.693L2.9854 17.2369L4.5811 19.6986L4.82117 16.7748L3.82452 16.693ZM4.6264 5.66086L3.91407 4.95901L3.8979 4.97542L3.8825 4.99257L4.6264 5.66086ZM4.18091 5.23886L3.43204 4.57615C0.253685 8.16775 -0.137581 13.4496 2.41611 17.4703L3.26024 16.9341L4.10436 16.398C2.025 13.1241 2.34651 8.82073 4.92979 5.90157L4.18091 5.23886ZM3.26024 16.9341L3.5807 15.9868L2.77883 15.7156L2.45836 16.6628L2.1379 17.6101L2.93977 17.8814L3.26024 16.9341ZM2.45836 16.6628L2.83452 15.7363C2.09627 15.4366 1.37459 15.8867 1.14192 16.477L2.07227 16.8437L3.00263 17.2103C2.93357 17.3856 2.80568 17.5078 2.66519 17.5754C2.52205 17.6442 2.3082 17.6811 2.08221 17.5894L2.45836 16.6628ZM2.07227 16.8437L1.14192 16.477C0.859957 17.1924 1.27395 17.9184 1.87431 18.1621L2.25047 17.2355L2.62662 16.309C2.80741 16.3824 2.92627 16.515 2.98958 16.6506C3.05407 16.7888 3.08831 16.9929 3.00263 17.2103L2.07227 16.8437ZM2.25047 17.2355L1.94033 18.1862L3.60348 18.7288L3.91362 17.7781L4.22376 16.8274L2.56061 16.2848L2.25047 17.2355ZM3.91362 17.7781L3.59315 18.7254C4.41219 19.0024 5.16661 18.429 5.28649 17.699L4.29971 17.537L3.31292 17.3749C3.3734 17.0066 3.77144 16.6743 4.23409 16.8308L3.91362 17.7781ZM4.29971 17.537L5.29358 17.6475L5.50147 15.7787L4.5076 15.6681L3.51373 15.5576L3.30584 17.4264L4.29971 17.537ZM4.5076 15.6681L5.48873 15.8615C5.65248 15.0305 5.00244 14.4513 4.40709 14.3506L4.24031 15.3366L4.07352 16.3226C3.83456 16.2821 3.42212 16.0043 3.52647 15.4748L4.5076 15.6681ZM4.24031 15.3366L4.43924 14.3565C3.58053 14.1822 3.02065 14.8745 2.92684 15.4458L3.91362 15.6078L4.9004 15.7699C4.87817 15.9053 4.806 16.0513 4.66863 16.1646C4.52909 16.2797 4.30308 16.3697 4.04138 16.3166L4.24031 15.3366ZM3.91362 15.6078L2.91697 15.526L2.82788 16.6111L3.82452 16.693L4.82117 16.7748L4.91027 15.6897L3.91362 15.6078ZM3.82452 16.693L4.66365 16.149C2.67304 13.0781 2.92115 9.05541 5.3703 6.32915L4.6264 5.66086L3.8825 4.99257C0.807615 8.41535 0.521142 13.4353 2.9854 17.2369L3.82452 16.693ZM4.6264 5.66086L5.33872 6.36271C5.96348 5.72863 5.67615 4.90962 5.30902 4.53701L4.5967 5.23886L3.88437 5.94071C3.80323 5.85836 3.72312 5.72714 3.70546 5.54792C3.68595 5.34986 3.75011 5.12541 3.91407 4.95901L4.6264 5.66086ZM4.5967 5.23886L5.30902 4.53701C4.79854 4.01891 3.97907 4.01891 3.46859 4.53701L4.18091 5.23886L4.89324 5.94071C4.77231 6.06344 4.59301 6.14844 4.3888 6.14844C4.1846 6.14844 4.0053 6.06344 3.88437 5.94071L4.5967 5.23886Z" fill="white" mask="url(#path-2-inside-1_6785_34487)"/>
<path d="M17.9032 2.66891C17.9032 2.49725 17.7905 2.38281 17.6214 2.38281C16.6066 2.38281 6.59946 2.38281 6.43033 2.38281C6.26119 2.38281 6.14844 2.49725 6.14844 2.66891C6.14844 7.9331 6.14844 -1.85143 6.14844 13.0542C6.14844 13.2259 6.26119 13.3403 6.43033 13.3403H8.14986L8.5445 13.8553C8.31899 14.2272 8.17804 14.6278 8.06529 15.0283L7.07867 15.1714C6.93773 15.2 6.82497 15.3144 6.82497 15.4575V16.5732C6.82497 16.7163 6.93773 16.8307 7.07867 16.8593L8.06529 16.9738C8.17804 17.4029 8.31899 17.7748 8.5445 18.1468L7.95253 18.9478C7.86797 19.0623 7.86797 19.2339 7.98072 19.3198L8.77001 20.1208C8.88277 20.2353 9.02371 20.2353 9.13647 20.1495L9.92576 19.5486C10.2922 19.7775 10.6869 19.9206 11.0815 20.035L11.2225 21.0364C11.2506 21.1794 11.3634 21.2938 11.5043 21.2938H12.5755C12.7165 21.2938 12.8292 21.1794 12.8574 21.0364L12.9984 20.035C13.4212 19.9206 13.7877 19.7775 14.1541 19.5486L14.9152 20.1495C14.9716 20.1781 15.028 20.2067 15.1125 20.2067C15.1971 20.2067 15.2817 20.1781 15.338 20.1208L16.0992 19.3484C16.2119 19.2339 16.2119 19.0909 16.1273 18.9765L15.5354 18.1754C15.7609 17.8035 15.9018 17.4029 16.0146 17.0024L17.0012 16.8593C17.1421 16.8307 17.2549 16.7163 17.2549 16.5732V15.4575C17.2549 15.3144 17.1421 15.2 17.0012 15.1714L16.0146 15.0283C15.9018 14.5992 15.7609 14.2272 15.5354 13.8553L15.93 13.3403H17.6495C17.8187 13.3403 17.9314 13.2259 17.9314 13.0542C17.9032 -3.05303 17.9032 8.50529 17.9032 2.66891ZM17.3395 5.04352H13.9568V2.95501H17.3395V5.04352ZM10.6305 2.95501H13.393V7.56117L12.2091 6.30234C12.1527 6.24513 12.0681 6.21652 12.0117 6.21652C11.9272 6.21652 11.8708 6.24513 11.8144 6.30234L10.6305 7.56117V2.95501ZM10.0667 2.95501V5.04352H6.68403V2.95501H10.0667ZM15.7045 15.5433L16.6347 15.6577V16.2871L15.7045 16.4016C15.5917 16.4302 15.479 16.516 15.4508 16.6305C15.3662 17.1168 15.1689 17.5746 14.9152 17.9751C14.8588 18.0896 14.8588 18.204 14.9152 18.3184L15.479 19.0909L15.0843 19.5486L14.3514 18.9765C14.2669 18.8906 14.1259 18.8906 14.0132 18.9765C13.6185 19.2625 13.1675 19.4342 12.6883 19.52C12.5755 19.5486 12.491 19.6345 12.4628 19.7775L12.3218 20.693H11.7017L11.5889 19.7489C11.5607 19.6345 11.4762 19.52 11.3634 19.4914C10.8842 19.4056 10.4332 19.2053 10.0385 18.9478C9.92576 18.8906 9.81301 18.8906 9.70025 18.9478L8.96734 19.52L8.5445 19.0909L9.10828 18.347C9.19285 18.2612 9.19285 18.0896 9.10828 17.9751C8.85458 17.5746 8.65726 17.1168 8.57269 16.6591C8.5445 16.5446 8.45993 16.4588 8.31899 16.4302L7.38875 16.3157V15.6863L8.31899 15.5719C8.43175 15.5433 8.5445 15.4575 8.57269 15.343C8.65726 14.8567 8.85458 14.3989 9.10828 13.9984C9.16466 13.8839 9.16466 13.7695 9.10828 13.655L8.5445 12.8826L8.96734 12.4534L9.70025 13.0256C9.78482 13.1115 9.95395 13.1115 10.0667 13.0256C10.4614 12.7681 10.9124 12.5679 11.3634 12.482C11.4762 12.4534 11.5607 12.3676 11.5889 12.2246L11.7017 11.2804H12.3218L12.4346 12.2246C12.4628 12.339 12.5473 12.4534 12.6601 12.482C13.1393 12.5679 13.5903 12.7681 13.985 13.0256C14.0977 13.0828 14.2105 13.0828 14.3232 13.0256L15.0562 12.4534L15.479 12.8826L14.9152 13.655C14.8306 13.7409 14.8306 13.8839 14.9152 13.9984C15.1971 14.3989 15.3662 14.8567 15.4508 15.343C15.5072 15.4288 15.5917 15.5433 15.7045 15.5433ZM16.1273 12.7681C16.1273 12.7395 16.0992 12.6823 16.071 12.6537L15.3099 11.8812C15.1971 11.7668 15.0562 11.7668 14.9434 11.8526L14.1541 12.4534C13.7877 12.2246 13.393 12.0815 12.9984 11.9671L12.8574 10.9657C12.8292 10.8227 12.7165 10.7082 12.5755 10.7082H11.4762C11.3352 10.7082 11.2225 10.8227 11.1943 10.9657L11.0533 11.9671C10.6305 12.0815 10.264 12.2246 9.89757 12.4534L9.10828 11.824C8.99553 11.7382 8.82639 11.7382 8.74182 11.8526L7.95253 12.6537C7.92434 12.6823 7.89615 12.7109 7.89615 12.7395H6.71222V5.5871H10.0949V8.27642C10.0949 8.39085 10.1513 8.50529 10.264 8.5339C10.3768 8.59112 10.4895 8.56251 10.5741 8.47668L12.0399 6.93176L13.5058 8.47668C13.5903 8.56251 13.7031 8.59112 13.8158 8.5339C13.9286 8.47668 13.985 8.39085 13.985 8.27642V5.5871H17.3677V12.7395H16.1273V12.7681Z" fill="white"/>
<mask id="path-5-inside-2_6785_34487" fill="white">
<path d="M12.0373 13.2031C10.464 13.2031 9.17969 14.5066 9.17969 16.1034C9.17969 17.7001 10.464 19.0036 12.0373 19.0036C13.6105 19.0036 14.8949 17.7001 14.8949 16.1034C14.8949 14.5066 13.6105 13.2031 12.0373 13.2031ZM12.0373 18.3193C10.8172 18.3193 9.82184 17.3091 9.82184 16.0708C9.82184 14.8325 10.8172 13.8223 12.0373 13.8223C13.2574 13.8223 14.2527 14.8325 14.2527 16.0708C14.2527 17.3417 13.2574 18.3193 12.0373 18.3193Z"/>
</mask>
<path d="M12.0373 13.2031C10.464 13.2031 9.17969 14.5066 9.17969 16.1034C9.17969 17.7001 10.464 19.0036 12.0373 19.0036C13.6105 19.0036 14.8949 17.7001 14.8949 16.1034C14.8949 14.5066 13.6105 13.2031 12.0373 13.2031ZM12.0373 18.3193C10.8172 18.3193 9.82184 17.3091 9.82184 16.0708C9.82184 14.8325 10.8172 13.8223 12.0373 13.8223C13.2574 13.8223 14.2527 14.8325 14.2527 16.0708C14.2527 17.3417 13.2574 18.3193 12.0373 18.3193Z" fill="white"/>
<path d="M12.0373 13.2031V12.2031C9.89779 12.2031 8.17969 13.9683 8.17969 16.1034H9.17969H10.1797C10.1797 15.0449 11.0302 14.2031 12.0373 14.2031V13.2031ZM9.17969 16.1034H8.17969C8.17969 18.2384 9.89779 20.0036 12.0373 20.0036V19.0036V18.0036C11.0302 18.0036 10.1797 17.1619 10.1797 16.1034H9.17969ZM12.0373 19.0036V20.0036C14.1767 20.0036 15.8949 18.2384 15.8949 16.1034H14.8949H13.8949C13.8949 17.1618 13.0443 18.0036 12.0373 18.0036V19.0036ZM14.8949 16.1034H15.8949C15.8949 13.9683 14.1767 12.2031 12.0373 12.2031V13.2031V14.2031C13.0443 14.2031 13.8949 15.0449 13.8949 16.1034H14.8949ZM12.0373 18.3193V17.3193C11.3834 17.3193 10.8218 16.7708 10.8218 16.0708H9.82184H8.82184C8.82184 17.8473 10.251 19.3193 12.0373 19.3193V18.3193ZM9.82184 16.0708H10.8218C10.8218 15.3707 11.3834 14.8223 12.0373 14.8223V13.8223V12.8223C10.251 12.8223 8.82184 14.2942 8.82184 16.0708H9.82184ZM12.0373 13.8223V14.8223C12.6912 14.8223 13.2527 15.3707 13.2527 16.0708H14.2527H15.2527C15.2527 14.2942 13.8236 12.8223 12.0373 12.8223V13.8223ZM14.2527 16.0708H13.2527C13.2527 16.7939 12.7006 17.3193 12.0373 17.3193V18.3193V19.3193C13.8141 19.3193 15.2527 17.8894 15.2527 16.0708H14.2527Z" fill="white" mask="url(#path-5-inside-2_6785_34487)"/>
</svg>