<svg width="17" height="15" viewBox="0 0 17 15" fill="none" xmlns="http://www.w3.org/2000/svg">
<path fill-rule="evenodd" clip-rule="evenodd" d="M15.6037 0.11238C15.394 0.015583 15.1609 -0.0197496 14.9317 0.0105342C14.7026 0.0407984 14.487 0.135338 14.3102 0.283054C12.4111 1.86543 10.4758 2.69484 9.0172 3.12851C8.2881 3.34528 7.67991 3.46261 7.25795 3.52554C7.04707 3.55699 6.88304 3.57481 6.77407 3.58467C6.7196 3.58959 6.67893 3.59253 6.65308 3.59419L6.62987 3.59555H3.62876C2.66654 3.59555 1.74372 3.97531 1.06333 4.65129C0.382931 5.32727 0.000688553 6.2441 0.000688553 7.20009C0.000688553 8.15607 0.382931 9.0729 1.06333 9.74888C1.62985 10.3117 2.36443 10.6692 3.14989 10.7731L4.03525 14.0903C4.08276 14.276 4.17412 14.4479 4.3018 14.5917C4.43065 14.7367 4.59271 14.8489 4.77432 14.9187C4.95593 14.9885 5.15176 15.0139 5.34533 14.9928C5.53884 14.9717 5.72441 14.9046 5.8864 14.7974C5.88644 14.7973 5.88636 14.7974 5.8864 14.7974L6.71596 14.2482C6.88216 14.138 7.01873 13.9886 7.11303 13.8136C7.20732 13.6386 7.25672 13.4432 7.25684 13.2447V10.8745C7.2572 10.8745 7.25757 10.8746 7.25793 10.8746C7.67989 10.9376 8.28807 11.0549 9.01717 11.2717C10.4758 11.7055 12.4113 12.5352 14.3105 14.1181C14.4874 14.2658 14.703 14.3602 14.9321 14.3904C15.1614 14.4207 15.3947 14.3852 15.6044 14.2882C15.8142 14.1912 15.9917 14.0368 16.1161 13.843C16.2405 13.6492 16.3066 13.4241 16.3066 13.1943V1.20512C16.3063 0.975403 16.24 0.750553 16.1155 0.556986C15.9909 0.36342 15.8134 0.209178 15.6037 0.11238ZM6.03389 10.8046H4.42351L5.21766 13.78L6.03389 13.2397V10.8046ZM6.03389 9.58961V4.81056H3.62876C2.99088 4.81056 2.37913 5.06231 1.92808 5.51044C1.47703 5.95856 1.22363 6.56634 1.22363 7.20009C1.22363 7.83383 1.47703 8.44161 1.92808 8.88973C2.37913 9.33786 2.99088 9.58961 3.62876 9.58961H6.03389ZM7.25684 4.75281V9.64737C7.314 9.65493 7.37496 9.66347 7.43952 9.6731C7.91099 9.74343 8.57638 9.8724 9.36785 10.1078C10.947 10.5774 13.0352 11.4727 15.0837 13.1766V1.22427C13.0352 2.92782 10.947 3.82301 9.36781 4.29252C8.57636 4.52783 7.91097 4.65677 7.4395 4.72709C7.37495 4.73672 7.314 4.74525 7.25684 4.75281Z" fill="white"/>
</svg>
