<svg width="24" height="24" viewBox="0 0 24 24" fill="none" xmlns="http://www.w3.org/2000/svg">
<path fill-rule="evenodd" clip-rule="evenodd" d="M8.04155 5.37881H8.68162C8.92479 5.37881 9.12193 5.18169 9.12193 4.93852C9.12193 4.69536 8.92479 4.49823 8.68162 4.49823H6.89851C6.89183 4.49808 6.88516 4.49808 6.87851 4.49823H5.54444C5.30127 4.49823 5.10414 4.69536 5.10414 4.93852C5.10414 5.18169 5.30127 5.37881 5.54444 5.37881H6.81855C6.91194 5.41343 7.02872 5.47596 7.12595 5.58089C7.19684 5.6574 7.26912 5.76863 7.31029 5.93587H5.54444C5.30127 5.93587 5.10414 6.133 5.10414 6.37616C5.10414 6.61933 5.30127 6.81645 5.54444 6.81645H7.20215C7.18702 6.84104 7.17112 6.86403 7.1547 6.88558C7.04433 7.03044 6.88913 7.1373 6.71222 7.21469C6.53509 7.29218 6.35196 7.33308 6.20894 7.35394C6.13855 7.36421 6.0807 7.36921 6.04193 7.37163C6.02262 7.37284 6.00825 7.3734 5.99967 7.37365L5.9913 7.37384C5.81428 7.37408 5.65506 7.48032 5.58646 7.64354C5.51778 7.80695 5.55379 7.99561 5.67783 8.12223L5.99237 7.81413C5.67783 8.12223 5.67783 8.12223 5.67783 8.12223L5.67864 8.12306L5.67979 8.12422L5.68307 8.12753L5.6936 8.138C5.70236 8.14664 5.7146 8.15855 5.7302 8.17337C5.76139 8.20301 5.80611 8.24437 5.86348 8.29457C5.97809 8.39485 6.14397 8.53109 6.3541 8.67993C6.77236 8.97619 7.37685 9.33013 8.10993 9.54394C8.34337 9.61202 8.58782 9.47798 8.6559 9.24454C8.72399 9.0111 8.58994 8.76667 8.3565 8.69858C7.81472 8.54057 7.34791 8.28731 6.99394 8.05129C7.01761 8.0418 7.04138 8.03185 7.06519 8.02144C7.33644 7.90277 7.62942 7.71553 7.85517 7.41925C7.98639 7.24702 8.08832 7.04645 8.15169 6.81645H8.68162C8.92479 6.81645 9.12193 6.61933 9.12193 6.37616C9.12193 6.133 8.92479 5.93587 8.68162 5.93587H8.20512C8.17669 5.72567 8.11955 5.54054 8.04155 5.37881Z" fill="white"/>
<path fill-rule="evenodd" clip-rule="evenodd" d="M16.4962 9.92339L17.8442 10.7561L13.8868 13.1999L12.5391 12.3677L16.4962 9.92339ZM11.057 12.2457C11.063 12.228 11.0699 12.2105 11.0778 12.1932C11.0888 12.1677 11.1007 12.1425 11.1137 12.1179C11.1943 11.9649 11.3143 11.8305 11.4681 11.7355L16.0088 8.93065C16.1536 8.84125 16.3215 8.79136 16.4962 8.79136C16.6708 8.79136 16.8386 8.84117 16.9834 8.93057L19.1554 10.2722C19.1733 10.282 19.1908 10.2927 19.2076 10.3045L21.5241 11.7354C21.6779 11.8304 21.7981 11.9649 21.8786 12.1179C21.8944 12.1478 21.9086 12.1784 21.9213 12.2095C21.924 12.2159 21.9266 12.2223 21.929 12.2288C21.976 12.3509 21.9997 12.4805 22 12.6101L22 12.6112V18.1801L22 18.1812C21.9997 18.3509 21.9591 18.5207 21.8786 18.6735C21.7981 18.8264 21.678 18.9609 21.5242 19.0559L16.9836 21.8607C16.8388 21.9501 16.6708 22 16.4962 22C16.3215 22 16.1537 21.9502 16.0089 21.8608L11.4683 19.056C11.314 18.9607 11.1937 18.8258 11.1132 18.6724C11.0327 18.5192 10.9923 18.349 10.9924 18.179L10.9924 12.6112L10.9924 12.6101C10.9926 12.4865 11.0142 12.3628 11.057 12.2457ZM12.0931 13.386V18.1481L15.9458 20.528V15.7651L14.5697 14.9153V16.7921C14.5697 17.0961 14.3233 17.3425 14.0193 17.3425C13.7154 17.3425 13.469 17.0961 13.469 16.7921V14.2356L12.0931 13.386ZM14.9343 13.8467L18.8915 11.403L20.4531 12.3676L16.496 14.8112L14.9343 13.8467ZM17.0466 15.7649L20.8992 13.3858V18.1481L17.0466 20.528V15.7649Z" fill="white"/>
<path fill-rule="evenodd" clip-rule="evenodd" d="M18.7673 3.88893C17.8413 2.96302 16.5855 2.44287 15.276 2.44287C14.9721 2.44287 14.7257 2.68927 14.7257 2.99323C14.7257 3.29718 14.9721 3.54359 15.276 3.54359C16.2936 3.54359 17.2694 3.94778 17.9889 4.66725C18.7084 5.38673 19.1126 6.36255 19.1126 7.38004V8.2574C19.1126 8.56136 19.3591 8.80776 19.663 8.80776C19.967 8.80776 20.2134 8.56136 20.2134 8.2574V7.38004C20.2134 6.07062 19.6932 4.81483 18.7673 3.88893Z" fill="white"/>
<path fill-rule="evenodd" clip-rule="evenodd" d="M4.74567 14.726C4.44171 14.726 4.19529 14.9724 4.19529 15.2764V16.1537C4.19529 17.4632 4.71552 18.7189 5.64145 19.6448C6.56741 20.5707 7.82321 21.0908 9.13267 21.0908C9.43664 21.0908 9.68306 20.8444 9.68306 20.5405C9.68306 20.2365 9.43664 19.9901 9.13267 19.9901C8.11512 19.9901 7.13931 19.586 6.41981 18.8665C5.70029 18.147 5.29605 17.1712 5.29605 16.1537V15.2764C5.29605 14.9724 5.04964 14.726 4.74567 14.726Z" fill="white"/>
<path fill-rule="evenodd" clip-rule="evenodd" d="M21.8065 6.11369C21.5916 5.89876 21.2431 5.89876 21.0282 6.11369L19.6626 7.47924L18.297 6.11369C18.082 5.89876 17.7335 5.89876 17.5186 6.11369C17.3037 6.32861 17.3037 6.67708 17.5186 6.89201L19.2734 8.64673C19.4883 8.86166 19.8368 8.86166 20.0518 8.64673L21.8065 6.89201C22.0215 6.67708 22.0215 6.32861 21.8065 6.11369Z" fill="white"/>
<path fill-rule="evenodd" clip-rule="evenodd" d="M5.13554 14.8872C4.9206 14.6723 4.57212 14.6723 4.35718 14.8872L2.60238 16.6419C2.38744 16.8569 2.38744 17.2053 2.60238 17.4203C2.81732 17.6352 3.1658 17.6352 3.38074 17.4203L4.74636 16.0547L6.11198 17.4203C6.32692 17.6352 6.6754 17.6352 6.89034 17.4203C7.10528 17.2053 7.10528 16.8569 6.89034 16.6419L5.13554 14.8872Z" fill="white"/>
<path fill-rule="evenodd" clip-rule="evenodd" d="M6.93691 2C8.24627 2 9.50199 2.52014 10.4278 3.44592C11.3537 4.37176 11.8738 5.62743 11.8738 6.93671C11.8738 8.24605 11.3537 9.50172 10.4278 10.4276C9.50198 11.3534 8.24626 11.8735 6.93691 11.8735C5.62755 11.8735 4.37182 11.3533 3.44594 10.4275C2.52012 9.5017 2 8.24604 2 6.93671C2 5.62744 2.52016 4.37175 3.44597 3.44591C4.37184 2.52014 5.62755 2 6.93691 2ZM6.9204 10.7724C4.79263 10.7724 3.06772 9.04761 3.06772 6.91992C3.06772 4.79223 4.79263 3.0674 6.9204 3.0674C9.04817 3.0674 10.7731 4.79223 10.7731 6.91992C10.7731 9.04761 9.04817 10.7724 6.9204 10.7724Z" fill="white"/>
</svg>