<svg width="180" height="48" viewBox="0 0 180 48" fill="none" xmlns="http://www.w3.org/2000/svg">
<mask id="mask0_8790_22" style="mask-type:alpha" maskUnits="userSpaceOnUse" x="0" y="0" width="180" height="48">
<path d="M152.305 18.8607C151.075 17.8412 149.482 17.1814 148.077 16.6007C146.138 15.7988 144.463 15.1052 144.463 13.8241C144.463 13.2625 144.725 12.7482 145.202 12.3794C145.704 11.987 146.405 11.7704 147.177 11.7704C149.601 11.7704 151.532 13.4835 151.552 13.5016L152.022 13.9301L154.17 9.90174L153.926 9.64349C153.83 9.54424 151.568 7.20752 147.206 7.20752C145.111 7.20752 143.186 7.87628 141.782 9.09201C140.356 10.3235 139.571 12.0264 139.571 13.8839C139.571 15.7413 140.273 17.1589 141.715 18.3588C142.929 19.3671 144.439 20.0166 145.9 20.6482C147.895 21.5075 149.62 22.2496 149.62 23.5725C149.62 24.5796 148.938 25.6566 147.026 25.6566C144.286 25.6566 142.084 23.5691 142.063 23.5477L141.651 23.1473L138.981 26.8486L139.248 27.1452C139.276 27.1768 139.967 27.9392 141.266 28.6959C142.454 29.3917 144.407 30.2195 146.966 30.2195C149.204 30.2195 151.111 29.5338 152.481 28.2358C153.77 27.0144 154.481 25.3261 154.481 23.4856C154.481 21.6451 153.769 20.0764 152.305 18.8618V18.8607Z" fill="#280071"/>
<path d="M180 7.54126H174.995V29.8867H180V7.54126Z" fill="#280071"/>
<path d="M169.768 18.0329C171.07 16.9886 171.808 15.3826 171.808 13.5512C171.808 11.7197 171.103 10.1566 169.768 9.08184C168.509 8.07249 166.761 7.53906 164.716 7.53906H156.574V29.8834H164.807C166.99 29.8834 168.877 29.3308 170.268 28.2865C171.845 27.1024 172.677 25.3352 172.677 23.1789C172.677 21.9519 172.355 20.7993 171.749 19.8429C171.252 19.0648 170.574 18.4468 169.767 18.0318L169.768 18.0329ZM165.106 25.6994H161.296V11.7242H164.655C166.161 11.7242 167.023 12.5655 167.023 14.0327C167.023 15.4999 166.247 16.2657 164.715 16.2657H163.556V20.3786H165.105C165.951 20.3786 166.655 20.6437 167.143 21.1444C167.653 21.671 167.861 22.1932 167.861 22.942C167.861 24.645 166.806 25.7005 165.105 25.7005L165.106 25.6994Z" fill="#280071"/>
<path d="M123.928 7.13867C117.549 7.13867 112.378 12.3241 112.378 18.7185C112.378 24.7126 116.922 29.6432 122.748 30.2364V21.8255C121.494 21.3496 120.604 20.1361 120.604 18.7185C120.604 16.8848 122.096 15.3916 123.929 15.3916C125.763 15.3916 127.255 16.8848 127.255 18.7185C127.255 20.1361 126.364 21.3496 125.111 21.8255V30.2364C130.936 29.6432 135.48 24.7126 135.48 18.7185C135.48 12.3241 130.309 7.13867 123.93 7.13867H123.928Z" fill="#05A7DE"/>
<mask id="mask1_8790_22" style="mask-type:luminance" maskUnits="userSpaceOnUse" x="0" y="0" width="104" height="30">
<path d="M75.4584 16.2589V29.941H69.052L69.0055 17.1217C68.797 13.1373 65.6584 13.1429 63.9202 13.1892C60.9572 13.2681 58.9143 14.8402 58.9732 17.7927V29.9703L52.2302 29.9274L52.2484 8.54731C52.4262 7.54135 52.8444 7.41504 55.353 7.38233C56.1779 7.37218 56.792 7.37669 57.6769 7.38233C58.9403 7.39022 59.0604 9.53636 59.0604 9.53636C59.0604 9.53636 60.5595 7.17933 65.8091 7.17933C73.25 7.17933 75.3961 11.8099 75.4595 16.2589H75.4584ZM19.1465 13.6876C18.5981 13.408 17.6304 13.9324 16.7999 14.1038C14.8272 14.5098 13.2307 14.123 12.4035 12.5531C11.0064 9.90062 7.60377 1.02175 7.60377 1.02175C7.60377 1.02175 7.28197 0.126311 6.4367 0.0541338L2.11285 0C2.11285 0 0.143555 0.0597715 1.24378 1.91381C2.18537 3.50057 9.75436 17.4724 9.75436 17.4724C9.75436 17.4724 10.7163 19.3671 9.67051 21.52C8.77878 23.3548 8.09213 24.3833 6.04578 24.5097C4.20112 24.6236 3.12469 23.9728 3.12469 23.9728C2.66126 23.7202 1.95875 23.445 1.64715 24.0958C1.40128 24.6112 0.0959646 26.8069 0.0959646 26.8069C0.0959646 26.8069 -0.366333 27.6708 0.738422 28.4681C1.96442 29.3523 4.02776 29.8022 6.14323 29.8022C8.25869 29.8022 11.8948 29.3365 14.2062 25.3521C16.8237 20.8388 19.2133 15.1098 19.2133 15.1098C19.2133 15.1098 19.8581 14.0508 19.1465 13.6876ZM17.8072 0.373289C15.0651 0.373289 12.842 2.58596 12.842 5.31514C12.842 8.04433 15.0651 10.257 17.8072 10.257C20.5492 10.257 22.7723 8.04433 22.7723 5.31514C22.7723 2.58596 20.5492 0.373289 17.8072 0.373289ZM47.0747 18.6746C47.0747 25.4604 42.5072 29.9703 34.9734 29.9703C27.4395 29.9703 22.8245 25.4604 22.8245 18.6746C22.8245 11.8889 27.4894 7.42067 34.9734 7.42067C42.4574 7.42067 47.0747 11.9306 47.0747 18.6746ZM40.4938 18.6746C40.4938 14.7128 38.4247 12.658 34.9734 12.658C31.522 12.658 29.4054 14.7128 29.4054 18.6746C29.4054 22.6364 31.5719 24.733 34.9734 24.733C38.3749 24.733 40.4938 22.6782 40.4938 18.6746ZM103.864 18.6047C103.864 25.4277 99.2701 29.9624 91.6955 29.9624C84.1208 29.9624 79.4786 25.4277 79.4786 18.6047C79.4786 11.7817 84.1696 7.28873 91.6955 7.28873C99.2214 7.28873 103.864 11.8235 103.864 18.6047ZM97.2465 18.6047C97.2465 14.6203 95.165 12.5554 91.6955 12.5554C88.226 12.5554 86.0958 14.6214 86.0958 18.6047C86.0958 22.5879 88.2747 24.6969 91.6955 24.6969C95.1163 24.6969 97.2465 22.6308 97.2465 18.6047Z" fill="white"/>
</mask>
<g mask="url(#mask1_8790_22)">
<path d="M104.547 0.000976562H-0.000244141V31.1058H104.547V0.000976562Z" fill="url(#paint0_linear_8790_22)"/>
</g>
<path d="M62.9934 37.6267H66.1989C66.6907 37.6267 67.1156 37.6899 67.4759 37.8173C67.8351 37.9447 68.1331 38.1162 68.3699 38.3327C68.6067 38.5492 68.7835 38.803 68.9013 39.0951C69.0192 39.3871 69.0781 39.6973 69.0781 40.0266C69.0781 40.3277 69.026 40.5961 68.9217 40.8318C68.8175 41.0675 68.6894 41.2716 68.5387 41.4464C68.3869 41.6212 68.2192 41.76 68.0357 41.8626C67.851 41.9663 67.6833 42.0317 67.5326 42.0599C67.7218 42.0881 67.9348 42.1468 68.1705 42.2359C68.4062 42.325 68.6294 42.4592 68.8368 42.6385C69.0441 42.8178 69.2197 43.0501 69.3614 43.3377C69.503 43.6253 69.5744 43.9805 69.5744 44.4034C69.5744 44.912 69.4826 45.3327 69.2979 45.6677C69.1132 46.0015 68.8628 46.2721 68.5455 46.4796C68.2283 46.6871 67.8532 46.8326 67.4181 46.9172C66.983 47.0018 66.5196 47.0447 66.0278 47.0447H62.9923V37.6267H62.9934ZM66.0006 41.5513C66.208 41.5513 66.4165 41.5254 66.625 41.4735C66.8323 41.4216 67.0227 41.3393 67.1926 41.2265C67.3626 41.1137 67.4997 40.9683 67.604 40.789C67.7082 40.6108 67.7603 40.3931 67.7603 40.1394C67.7603 39.8574 67.7082 39.6285 67.604 39.4548C67.4997 39.2811 67.3626 39.1447 67.1926 39.0454C67.0227 38.9462 66.8335 38.8808 66.625 38.8481C66.4165 38.8154 66.2091 38.7985 66.0006 38.7985H64.3123V41.5513H66.0006ZM65.9576 45.8718C66.2035 45.8718 66.4584 45.8582 66.7235 45.8289C66.9887 45.8007 67.2323 45.7353 67.4544 45.6316C67.6765 45.5278 67.8589 45.3756 68.0005 45.1726C68.1422 44.9707 68.2136 44.6899 68.2136 44.3324C68.2136 43.994 68.1444 43.7211 68.0073 43.5136C67.8702 43.3072 67.6957 43.1415 67.4827 43.0197C67.2697 42.8979 67.0363 42.8144 66.7802 42.7727C66.5241 42.731 66.2794 42.7095 66.0426 42.7095H64.3123V45.8718H65.9576Z" fill="#05A7DE"/>
<path d="M71.2921 37.6267H72.6541V43.1336C72.6541 43.5576 72.6915 43.9456 72.7674 44.2985C72.8433 44.6515 72.9736 44.9549 73.1572 45.2098C73.3419 45.4635 73.5877 45.6598 73.8948 45.7962C74.2019 45.9327 74.5916 46.0015 75.0653 46.0015C75.5389 46.0015 75.914 45.9338 76.221 45.7962C76.5281 45.6598 76.774 45.4647 76.9587 45.2098C77.1434 44.956 77.2725 44.6515 77.3484 44.2985C77.4244 43.9456 77.4617 43.5576 77.4617 43.1336V37.6267H78.8237V43.4584C78.8237 43.9952 78.7478 44.4959 78.5971 44.9617C78.4453 45.4274 78.2164 45.8323 77.9093 46.1763C77.6022 46.5202 77.2113 46.7909 76.7388 46.9883C76.2663 47.1856 75.7077 47.2849 75.0653 47.2849C74.4228 47.2849 73.8642 47.1856 73.3917 46.9883C72.9192 46.7909 72.526 46.5202 72.2144 46.1763C71.9028 45.8323 71.6706 45.4274 71.5199 44.9617C71.368 44.4959 71.2932 43.994 71.2932 43.4584V37.6267H71.2921Z" fill="#05A7DE"/>
<path d="M81.3211 44.7565C81.4536 44.9077 81.6021 45.0599 81.7675 45.2155C81.9329 45.3712 82.1199 45.5099 82.3284 45.6317C82.5357 45.7546 82.768 45.8527 83.023 45.9283C83.2779 46.0039 83.5566 46.0411 83.8603 46.0411C84.4846 46.0411 84.9719 45.9001 85.322 45.617C85.6721 45.3351 85.8466 44.9539 85.8466 44.4735C85.8466 43.9558 85.6483 43.5679 85.2506 43.3085C84.8529 43.0502 84.2807 42.8405 83.534 42.6803C83.1272 42.5958 82.7589 42.4785 82.427 42.3274C82.0961 42.1774 81.8094 41.989 81.5692 41.7623C81.3279 41.5368 81.1409 41.2751 81.0083 40.9785C80.8758 40.6819 80.81 40.3459 80.81 39.9692C80.81 39.6207 80.8758 39.2914 81.0083 38.9813C81.1409 38.6711 81.3392 38.3982 81.6043 38.1625C81.8695 37.928 82.2003 37.7385 82.5969 37.5975C82.9946 37.4565 83.4524 37.3855 83.9725 37.3855C84.4359 37.3855 84.8359 37.4351 85.1713 37.5332C85.5067 37.6325 85.7933 37.752 86.029 37.893C86.2658 38.034 86.4551 38.1806 86.5967 38.3306C86.7383 38.4817 86.8471 38.6035 86.923 38.6971L86.0154 39.5305C85.9588 39.4651 85.8738 39.3771 85.7605 39.2689C85.6472 39.1606 85.5033 39.0546 85.3276 38.9508C85.152 38.8471 84.9492 38.7602 84.718 38.6892C84.4858 38.6181 84.2195 38.5832 83.917 38.5832C83.6144 38.5832 83.3538 38.6238 83.1363 38.7027C82.9187 38.7828 82.7386 38.8865 82.5969 39.0129C82.4553 39.1403 82.351 39.2835 82.2853 39.4437C82.2196 39.6038 82.1856 39.7639 82.1856 39.9241C82.1856 40.1598 82.2355 40.3594 82.334 40.5241C82.4338 40.6887 82.5777 40.8342 82.7669 40.9616C82.9561 41.0891 83.1895 41.1973 83.4694 41.2864C83.7481 41.3755 84.0677 41.4624 84.4268 41.5481C84.777 41.6326 85.1192 41.7432 85.4557 41.8796C85.7911 42.0161 86.0913 42.1999 86.3565 42.43C86.6216 42.6612 86.8312 42.9431 86.9876 43.2769C87.144 43.6107 87.2222 44.0179 87.2222 44.4983C87.2222 44.9032 87.1372 45.2753 86.9672 45.6137C86.7972 45.952 86.5627 46.2463 86.2647 46.4956C85.9667 46.7448 85.6143 46.9376 85.2075 47.0741C84.8008 47.2106 84.3611 47.2782 83.8886 47.2782C83.4445 47.2782 83.0399 47.2264 82.6762 47.1226C82.3125 47.0188 81.9816 46.888 81.6836 46.7279C81.3856 46.5677 81.125 46.3918 80.903 46.1978C80.6809 46.005 80.4984 45.8144 80.3568 45.6261L81.3211 44.7509V44.7565Z" fill="#05A7DE"/>
<path d="M89.1665 37.6267H90.5285V47.0447H89.1665V37.6267Z" fill="#05A7DE"/>
<path d="M92.6836 37.6267H94.0592L99.2227 44.9831V37.6267H100.556V47.0447H99.1943L94.0161 39.6747V47.0447H92.6825V37.6267H92.6836Z" fill="#05A7DE"/>
<path d="M102.714 37.6267H108.671V38.8266H104.076V41.566H107.537V42.7806H104.076V45.83H109.012V47.0447H102.714V37.6267Z" fill="#05A7DE"/>
<path d="M110.912 44.7565C111.045 44.9077 111.193 45.0599 111.359 45.2155C111.524 45.3712 111.711 45.5099 111.92 45.6317C112.127 45.7546 112.359 45.8527 112.614 45.9283C112.869 46.0039 113.148 46.0411 113.452 46.0411C114.076 46.0411 114.563 45.9001 114.913 45.617C115.264 45.3351 115.438 44.9539 115.438 44.4735C115.438 43.9558 115.24 43.5679 114.842 43.3085C114.444 43.0502 113.872 42.8405 113.125 42.6803C112.719 42.5958 112.35 42.4785 112.018 42.3274C111.688 42.1774 111.401 41.989 111.161 41.7623C110.919 41.5368 110.732 41.2751 110.6 40.9785C110.467 40.6819 110.401 40.3459 110.401 39.9692C110.401 39.6207 110.467 39.2914 110.6 38.9813C110.732 38.6711 110.931 38.3982 111.196 38.1625C111.461 37.928 111.792 37.7385 112.188 37.5975C112.586 37.4565 113.044 37.3855 113.564 37.3855C114.027 37.3855 114.427 37.4351 114.763 37.5332C115.098 37.6325 115.385 37.752 115.62 37.893C115.856 38.034 116.046 38.1806 116.188 38.3306C116.33 38.4817 116.439 38.6035 116.514 38.6971L115.607 39.5305C115.55 39.4651 115.465 39.3771 115.352 39.2689C115.239 39.1606 115.094 39.0546 114.919 38.9508C114.745 38.8471 114.541 38.7602 114.309 38.6892C114.077 38.6181 113.811 38.5832 113.508 38.5832C113.206 38.5832 112.945 38.6238 112.728 38.7027C112.51 38.7828 112.33 38.8865 112.188 39.0129C112.047 39.1403 111.942 39.2835 111.877 39.4437C111.811 39.6038 111.777 39.7639 111.777 39.9241C111.777 40.1598 111.827 40.3594 111.927 40.5241C112.026 40.6887 112.17 40.8342 112.359 40.9616C112.549 41.0891 112.782 41.1973 113.062 41.2864C113.341 41.3755 113.66 41.4624 114.019 41.5481C114.37 41.6326 114.712 41.7432 115.048 41.8796C115.384 42.0161 115.684 42.1999 115.949 42.43C116.213 42.6612 116.424 42.9431 116.58 43.2769C116.737 43.6107 116.815 44.0179 116.815 44.4983C116.815 44.9032 116.73 45.2753 116.56 45.6137C116.39 45.952 116.155 46.2463 115.857 46.4956C115.559 46.7448 115.207 46.9376 114.8 47.0741C114.393 47.2106 113.954 47.2782 113.481 47.2782C113.037 47.2782 112.633 47.2264 112.268 47.1226C111.904 47.0188 111.573 46.888 111.275 46.7279C110.977 46.5677 110.716 46.3918 110.494 46.1978C110.272 46.005 110.09 45.8144 109.948 45.6261L110.912 44.7509V44.7565Z" fill="#05A7DE"/>
<path d="M119.169 44.7565C119.302 44.9077 119.45 45.0599 119.616 45.2155C119.781 45.3712 119.968 45.5099 120.177 45.6317C120.384 45.7546 120.616 45.8527 120.871 45.9283C121.126 46.0039 121.405 46.0411 121.709 46.0411C122.333 46.0411 122.82 45.9001 123.17 45.617C123.52 45.3351 123.695 44.9539 123.695 44.4735C123.695 43.9558 123.497 43.5679 123.099 43.3085C122.701 43.0502 122.129 42.8405 121.382 42.6803C120.976 42.5958 120.607 42.4785 120.275 42.3274C119.944 42.1774 119.658 41.989 119.418 41.7623C119.176 41.5368 118.989 41.2751 118.857 40.9785C118.724 40.6819 118.658 40.3459 118.658 39.9692C118.658 39.6207 118.724 39.2914 118.857 38.9813C118.989 38.6711 119.188 38.3982 119.453 38.1625C119.718 37.928 120.049 37.7385 120.445 37.5975C120.843 37.4565 121.301 37.3855 121.821 37.3855C122.284 37.3855 122.684 37.4351 123.02 37.5332C123.355 37.6325 123.642 37.752 123.877 37.893C124.113 38.034 124.303 38.1806 124.445 38.3306C124.587 38.4817 124.695 38.6035 124.771 38.6971L123.864 39.5305C123.807 39.4651 123.722 39.3771 123.609 39.2689C123.496 39.1606 123.351 39.0546 123.176 38.9508C123.002 38.8471 122.798 38.7602 122.566 38.6892C122.334 38.6181 122.068 38.5832 121.765 38.5832C121.463 38.5832 121.202 38.6238 120.985 38.7027C120.767 38.7828 120.587 38.8865 120.445 39.0129C120.304 39.1403 120.199 39.2835 120.134 39.4437C120.068 39.6038 120.034 39.7639 120.034 39.9241C120.034 40.1598 120.084 40.3594 120.184 40.5241C120.283 40.6887 120.427 40.8342 120.616 40.9616C120.806 41.0891 121.039 41.1973 121.319 41.2864C121.598 41.3755 121.917 41.4624 122.276 41.5481C122.626 41.6326 122.969 41.7432 123.305 41.8796C123.641 42.0161 123.941 42.1999 124.206 42.43C124.47 42.6612 124.681 42.9431 124.837 43.2769C124.993 43.6107 125.072 44.0179 125.072 44.4983C125.072 44.9032 124.987 45.2753 124.817 45.6137C124.647 45.952 124.412 46.2463 124.114 46.4956C123.816 46.7448 123.464 46.9376 123.057 47.0741C122.65 47.2106 122.211 47.2782 121.738 47.2782C121.294 47.2782 120.889 47.2264 120.525 47.1226C120.161 47.0188 119.83 46.888 119.532 46.7279C119.234 46.5677 118.973 46.3918 118.751 46.1978C118.529 46.005 118.347 45.8144 118.205 45.6261L119.169 44.7509V44.7565Z" fill="#05A7DE"/>
</mask>
<g mask="url(#mask0_8790_22)">
<rect x="-12.8572" y="-6.39819" width="209.571" height="62.7042" fill="white"/>
</g>
<defs>
<linearGradient id="paint0_linear_8790_22" x1="36.0692" y1="40.3895" x2="67.7018" y2="-8.55039" gradientUnits="userSpaceOnUse">
<stop stop-color="#CB0053"/>
<stop offset="0.99" stop-color="#2F236D"/>
</linearGradient>
</defs>
</svg>
