<svg width="20" height="20" viewBox="0 0 20 20" fill="none" xmlns="http://www.w3.org/2000/svg">
<path fill-rule="evenodd" clip-rule="evenodd" d="M10.3914 5.39107C10.6355 5.14699 11.0312 5.14699 11.2753 5.39107L15.4419 9.55773C15.5592 9.67494 15.625 9.83391 15.625 9.99968C15.625 10.1654 15.5592 10.3244 15.4419 10.4416L11.2753 14.6083C11.0312 14.8524 10.6355 14.8524 10.3914 14.6083C10.1473 14.3642 10.1473 13.9685 10.3914 13.7244L13.4911 10.6247L5 10.6247C4.65482 10.6247 4.375 10.3449 4.375 9.99967C4.375 9.6545 4.65482 9.37467 5 9.37467L13.4911 9.37468L10.3914 6.27495C10.1473 6.03087 10.1473 5.63514 10.3914 5.39107Z" fill="#514FA1"/>
</svg>
