<svg width="14" height="17" viewBox="0 0 14 17" fill="none" xmlns="http://www.w3.org/2000/svg">
<path d="M5.49524 16.6667V15.0061H1.41915C1.02257 15.0061 0.686905 14.8687 0.412143 14.594C0.137381 14.3192 0 13.9836 0 13.587V3.07969C0 2.68312 0.137381 2.34745 0.412143 2.07269C0.686905 1.79792 1.02257 1.66054 1.41915 1.66054H5.49524V0H6.67279V16.6667H5.49524ZM1.41915 13.8286H5.49524V11.866H2.94388V10.6884H5.49524V8.92211H2.94388V7.74456H5.49524V5.97823H2.94388V4.80068H5.49524V2.83809H1.41915C1.3587 2.83809 1.30335 2.86328 1.25311 2.91365C1.20274 2.9639 1.17755 3.01924 1.17755 3.07969V13.587C1.17755 13.6474 1.20274 13.7028 1.25311 13.753C1.30335 13.8034 1.3587 13.8286 1.41915 13.8286ZM8.31842 2.83809V1.66054H12.002C12.3986 1.66054 12.7342 1.79792 13.009 2.07269C13.2836 2.34745 13.4209 2.68312 13.4209 3.07969V13.587C13.4209 13.9836 13.2836 14.3192 13.009 14.594C12.7342 14.8687 12.3986 15.0061 12.002 15.0061H8.31842V13.8286H12.002C12.0623 13.8286 12.1177 13.8034 12.168 13.753C12.2184 13.7028 12.2436 13.6474 12.2436 13.587V3.07969C12.2436 3.01924 12.2184 2.9639 12.168 2.91365C12.1177 2.86328 12.0623 2.83809 12.002 2.83809H8.31842ZM8.31842 8.92211V7.74456H10.8698V8.92211H8.31842ZM8.31842 5.97823V4.80068H10.8698V5.97823H8.31842Z" fill="#673391"/>
</svg>
