<svg xmlns="http://www.w3.org/2000/svg" width="16" height="16" viewBox="0 0 16 16" fill="none">
    <path fill-rule="evenodd" clip-rule="evenodd" d="M2.33331 7.99998C2.33331 4.95414 4.73637 2.46956 7.74998 2.33873V13.6612C4.73637 13.5304 2.33331 11.0458 2.33331 7.99998ZM1.33331 7.99998C1.33331 4.31808 4.31808 1.33331 7.99998 1.33331C9.82815 1.33331 11.4844 2.06918 12.6888 3.26088C12.6973 3.26921 12.7056 3.27756 12.714 3.28594C12.7224 3.29431 12.7308 3.30271 12.7391 3.31113C13.9308 4.51551 14.6666 6.17181 14.6666 7.99998C14.6666 11.6819 11.6819 14.6666 7.99998 14.6666C4.31808 14.6666 1.33331 11.6819 1.33331 7.99998Z" fill="#ccced2"/>
  </svg>