<svg width="24" height="24" viewBox="0 0 24 24" fill="none" xmlns="http://www.w3.org/2000/svg">
<g id="Customer support">
<path id="Vector (Stroke)" fill-rule="evenodd" clip-rule="evenodd" d="M8.48392 2.70704C9.61085 2.24025 10.8187 2 12.0385 2C13.2582 2 14.4661 2.24025 15.593 2.70704C16.7199 3.17383 17.7439 3.85801 18.6064 4.72053C19.4689 5.58304 20.1531 6.60699 20.6199 7.73392C21.0867 8.86085 21.3269 10.0687 21.3269 11.2885V18.4038C21.3269 19.3576 20.948 20.2723 20.2736 20.9467C19.5992 21.6211 18.6845 22 17.7308 22H12.75C12.3358 22 12 21.6642 12 21.25C12 20.8358 12.3358 20.5 12.75 20.5H17.7308C18.2867 20.5 18.8199 20.2792 19.213 19.8861C19.597 19.502 19.8166 18.9843 19.8266 18.4423H17.7308C17.1544 18.4423 16.6017 18.2134 16.1942 17.8058C15.7866 17.3983 15.5577 16.8456 15.5577 16.2692V12.7115C15.5577 12.1352 15.7866 11.5825 16.1942 11.1749C16.6017 10.7674 17.1544 10.5385 17.7308 10.5385H19.7907C19.7167 9.77289 19.5295 9.0211 19.2341 8.30795C18.8427 7.36301 18.269 6.50441 17.5457 5.78119C16.8225 5.05796 15.9639 4.48427 15.019 4.09286C14.074 3.70145 13.0613 3.5 12.0385 3.5C11.0157 3.5 10.0029 3.70145 9.05795 4.09286C8.11301 4.48427 7.25441 5.05796 6.53119 5.78119C5.80796 6.50441 5.23427 7.36301 4.84286 8.30795C4.54746 9.0211 4.36026 9.77289 4.28619 10.5385H6.34615C6.92249 10.5385 7.47522 10.7674 7.88275 11.1749C8.29028 11.5825 8.51923 12.1352 8.51923 12.7115V16.2692C8.51923 16.8456 8.29028 17.3983 7.88275 17.8058C7.47522 18.2134 6.92249 18.4423 6.34615 18.4423H4.92308C4.34674 18.4423 3.79401 18.2134 3.38648 17.8058C2.97895 17.3983 2.75 16.8456 2.75 16.2692V11.2885C2.75 10.0687 2.99025 8.86085 3.45704 7.73392C3.92383 6.60699 4.60801 5.58304 5.47053 4.72053C6.33304 3.85801 7.35699 3.17383 8.48392 2.70704ZM4.25 12.0385V16.2692C4.25 16.4477 4.32091 16.6189 4.44714 16.7452C4.57337 16.8714 4.74457 16.9423 4.92308 16.9423H6.34615C6.52466 16.9423 6.69586 16.8714 6.82209 16.7452C6.94832 16.6189 7.01923 16.4477 7.01923 16.2692V12.7115C7.01923 12.533 6.94832 12.3618 6.82209 12.2356C6.69586 12.1094 6.52466 12.0385 6.34615 12.0385H4.25ZM19.8269 12.0385H17.7308C17.5523 12.0385 17.3811 12.1094 17.2548 12.2356C17.1286 12.3618 17.0577 12.533 17.0577 12.7115V16.2692C17.0577 16.4477 17.1286 16.6189 17.2548 16.7452C17.3811 16.8714 17.5523 16.9423 17.7308 16.9423H19.8269V12.0385Z" fill="#CCCED2"/>
</g>
</svg>
