<svg width="24" height="24" viewBox="0 0 24 24" fill="none" xmlns="http://www.w3.org/2000/svg">
<g id="External link">
<path id="Vector (Stroke)" fill-rule="evenodd" clip-rule="evenodd" d="M13.7727 2.74988C13.7728 2.33567 14.1086 1.99994 14.5228 2L21.2103 2.00104C21.4153 1.99025 21.6238 2.06312 21.7803 2.21967C21.9369 2.37621 22.0097 2.58473 21.999 2.78966L22 9.47716C22.0001 9.89137 21.6643 10.2272 21.2501 10.2273C20.8359 10.2273 20.5001 9.8916 20.5 9.47739L20.4992 4.56143L13.3712 11.6894C13.0783 11.9823 12.6035 11.9823 12.3106 11.6894C12.0177 11.3965 12.0177 10.9217 12.3106 10.6288L19.4386 3.50077L14.5226 3.5C14.1084 3.49994 13.7727 3.1641 13.7727 2.74988ZM3.59091 6.86364C3.5668 6.86364 3.54368 6.87321 3.52663 6.89026C3.50958 6.90731 3.5 6.93044 3.5 6.95455V20.4091C3.5 20.4332 3.50958 20.4563 3.52663 20.4734C3.54367 20.4904 3.5668 20.5 3.59091 20.5H17.0455C17.0696 20.5 17.0927 20.4904 17.1097 20.4734C17.1268 20.4563 17.1364 20.4332 17.1364 20.4091V12.8409C17.1364 12.4267 17.4721 12.0909 17.8864 12.0909C18.3006 12.0909 18.6364 12.4267 18.6364 12.8409V20.4091C18.6364 20.831 18.4688 21.2357 18.1704 21.534C17.872 21.8324 17.4674 22 17.0455 22H3.59091C3.16898 22 2.76432 21.8324 2.46597 21.534C2.16761 21.2357 2 20.831 2 20.4091V6.95455C2 6.53261 2.16761 6.12796 2.46597 5.8296C2.76432 5.53125 3.16897 5.36364 3.59091 5.36364H11.1591C11.5733 5.36364 11.9091 5.69942 11.9091 6.11364C11.9091 6.52785 11.5733 6.86364 11.1591 6.86364H3.59091Z" fill="#CCCED2"/>
</g>
</svg>
