<svg width="24" height="24" viewBox="0 0 24 24" fill="none" xmlns="http://www.w3.org/2000/svg">
<path fill-rule="evenodd" clip-rule="evenodd" d="M13.7727 2.75C13.7727 2.33579 14.1085 2 14.5227 2H21.25C21.6642 2 22 2.33579 22 2.75V21.25C22 21.6642 21.6642 22 21.25 22H14.5227C14.1085 22 13.7727 21.6642 13.7727 21.25C13.7727 20.8358 14.1085 20.5 14.5227 20.5H20.5V3.5H14.5227C14.1085 3.5 13.7727 3.16421 13.7727 2.75ZM9.78785 7.26512C10.0807 6.97223 10.5556 6.97223 10.8485 7.26512L15.0531 11.4697C15.346 11.7626 15.346 12.2374 15.0531 12.5303L10.8485 16.7349C10.5556 17.0278 10.0807 17.0278 9.78785 16.7349C9.49496 16.442 9.49496 15.9671 9.78785 15.6742L12.7121 12.75H2.75C2.33579 12.75 2 12.4142 2 12C2 11.5858 2.33579 11.25 2.75 11.25H12.7121L9.78785 8.32578C9.49496 8.03289 9.49496 7.55802 9.78785 7.26512Z" fill="#242424"/>
</svg>