<svg width="19" height="15" viewBox="0 0 19 15" fill="none" xmlns="http://www.w3.org/2000/svg">
<path fill-rule="evenodd" clip-rule="evenodd" d="M0 0.75C0 0.335786 0.335786 0 0.75 0H17.75C18.1642 0 18.5 0.335786 18.5 0.75C18.5 1.16421 18.1642 1.5 17.75 1.5H0.75C0.335786 1.5 0 1.16421 0 0.75ZM0 7.25C0 6.83579 0.335786 6.5 0.75 6.5H17.75C18.1642 6.5 18.5 6.83579 18.5 7.25C18.5 7.66421 18.1642 8 17.75 8H0.75C0.335786 8 0 7.66421 0 7.25ZM0 13.75C0 13.3358 0.335786 13 0.75 13H8.1875C8.60171 13 8.9375 13.3358 8.9375 13.75C8.9375 14.1642 8.60171 14.5 8.1875 14.5H0.75C0.335786 14.5 0 14.1642 0 13.75Z" fill="#673391"/>
</svg>
