<svg width="24" height="24" viewBox="0 0 24 24" fill="none" xmlns="http://www.w3.org/2000/svg">
<path fill-rule="evenodd" clip-rule="evenodd" d="M9.67978 6.05005C7.40227 6.05005 5.47994 8.16607 5.47994 10.4167C5.47994 12.5947 7.33034 14.4134 9.67978 14.4134C12.0292 14.4134 13.8796 12.5947 13.8796 10.4167C13.8796 8.16607 11.9573 6.05005 9.67978 6.05005ZM12.9127 14.9435C14.3973 13.9569 15.3796 12.3073 15.3796 10.4167C15.3796 7.42422 12.8697 4.55005 9.67978 4.55005C6.48985 4.55005 3.97994 7.42422 3.97994 10.4167C3.97994 12.3073 4.96229 13.9569 6.44688 14.9435C4.7731 15.5177 3.32933 16.529 2.18598 17.8335C1.91297 18.145 1.94416 18.6189 2.25567 18.8919C2.56717 19.1649 3.04102 19.1337 3.31404 18.8222C4.87792 17.0379 7.07074 15.9134 9.67978 15.9134C12.2888 15.9134 14.4816 17.0379 16.0455 18.8222C16.3185 19.1337 16.7924 19.1649 17.1039 18.8919C17.4154 18.6189 17.4466 18.145 17.1736 17.8335C16.0302 16.529 14.5865 15.5177 12.9127 14.9435ZM19.2495 10.2996C19.6637 10.2996 19.9995 10.6354 19.9995 11.0496V11.3863C20.1962 11.461 20.3794 11.5642 20.543 11.6914L20.8867 11.501C21.249 11.3004 21.7055 11.4314 21.9061 11.7938C22.1068 12.1562 21.9757 12.6126 21.6134 12.8133L21.3002 12.9867C21.3128 13.0773 21.3194 13.1701 21.3194 13.2647C21.3194 13.3593 21.3128 13.4521 21.3002 13.5427L21.6134 13.7162C21.9757 13.9168 22.1068 14.3733 21.9061 14.7356C21.7055 15.098 21.249 15.2291 20.8867 15.0284L20.543 14.8381C20.3794 14.9652 20.1962 15.0684 19.9995 15.1431V15.4798C19.9995 15.8941 19.6637 16.2298 19.2495 16.2298C18.8352 16.2298 18.4995 15.8941 18.4995 15.4798V15.1431C18.3027 15.0684 18.1195 14.9652 17.9559 14.8381L17.6122 15.0284C17.2499 15.2291 16.7935 15.098 16.5928 14.7356C16.3921 14.3733 16.5232 13.9168 16.8856 13.7162L17.1987 13.5427C17.1861 13.4521 17.1795 13.3593 17.1795 13.2647C17.1795 13.1701 17.1861 13.0773 17.1987 12.9867L16.8856 12.8133C16.5232 12.6126 16.3921 12.1562 16.5928 11.7938C16.7935 11.4314 17.2499 11.3004 17.6122 11.501L17.9559 11.6914C18.1195 11.5642 18.3027 11.461 18.4995 11.3863V11.0496C18.4995 10.6354 18.8352 10.2996 19.2495 10.2996ZM19.2495 12.7489C18.9047 12.7489 18.6795 13.0092 18.6795 13.2647C18.6795 13.5203 18.9047 13.7805 19.2495 13.7805C19.5942 13.7805 19.8194 13.5203 19.8194 13.2647C19.8194 13.0092 19.5942 12.7489 19.2495 12.7489Z" fill="#242424"/>
</svg>