<svg width="24" height="24" viewBox="0 0 24 24" fill="none" xmlns="http://www.w3.org/2000/svg">
<path fill-rule="evenodd" clip-rule="evenodd" d="M9.19444 5.80556C9.19444 4.25609 10.4505 3 12 3C13.5495 3 14.8056 4.25609 14.8056 5.80556V6.08333H19.1944C20.7439 6.08333 22 7.33942 22 8.88889V18.1389C22 19.6884 20.7439 20.9444 19.1944 20.9444H4.80556C3.25609 20.9444 2 19.6884 2 18.1389V8.88889C2 7.33942 3.25609 6.08333 4.80556 6.08333H9.19444V5.80556ZM9.29581 7.58333H4.80556C4.08452 7.58333 3.5 8.16785 3.5 8.88889V18.1389C3.5 18.8599 4.08452 19.4444 4.80556 19.4444H19.1944C19.9155 19.4444 20.5 18.8599 20.5 18.1389V8.88889C20.5 8.16785 19.9155 7.58333 19.1944 7.58333H14.7042C14.3762 8.76865 13.2897 9.63889 12 9.63889C10.7103 9.63889 9.62384 8.76865 9.29581 7.58333ZM12 4.5C11.279 4.5 10.6944 5.08452 10.6944 5.80556V6.83333C10.6944 7.55437 11.279 8.13889 12 8.13889C12.721 8.13889 13.3056 7.55437 13.3056 6.83333V5.80556C13.3056 5.08452 12.721 4.5 12 4.5ZM8.91667 11.6944C8.19563 11.6944 7.61111 12.279 7.61111 13C7.61111 13.721 8.19563 14.3056 8.91667 14.3056C9.63771 14.3056 10.2222 13.721 10.2222 13C10.2222 12.279 9.63771 11.6944 8.91667 11.6944ZM10.9761 14.9052C11.4392 14.4049 11.7222 13.7355 11.7222 13C11.7222 11.4505 10.4661 10.1944 8.91667 10.1944C7.3672 10.1944 6.11111 11.4505 6.11111 13C6.11111 13.7355 6.39414 14.4049 6.85722 14.9052C6.14209 15.3617 5.58873 16.0488 5.3016 16.8612C5.16356 17.2517 5.36826 17.6802 5.75879 17.8182C6.14933 17.9563 6.57782 17.7516 6.71586 17.361C7.03653 16.4538 7.90188 15.8056 8.91667 15.8056C9.93143 15.8056 10.7967 16.4538 11.1174 17.361C11.2554 17.7516 11.6839 17.9563 12.0744 17.8182C12.465 17.6802 12.6697 17.2517 12.5316 16.8612C12.2445 16.0488 11.6912 15.3617 10.9761 14.9052ZM14.3333 11.9722C14.3333 11.558 14.6691 11.2222 15.0833 11.2222H18.1667C18.5809 11.2222 18.9167 11.558 18.9167 11.9722C18.9167 12.3864 18.5809 12.7222 18.1667 12.7222H15.0833C14.6691 12.7222 14.3333 12.3864 14.3333 11.9722ZM14.3333 16.0833C14.3333 15.6691 14.6691 15.3333 15.0833 15.3333H17.1389C17.5531 15.3333 17.8889 15.6691 17.8889 16.0833C17.8889 16.4975 17.5531 16.8333 17.1389 16.8333H15.0833C14.6691 16.8333 14.3333 16.4975 14.3333 16.0833Z" fill="#242424"/>
</svg>