<svg width="76" height="76" viewBox="0 0 76 76" fill="none" xmlns="http://www.w3.org/2000/svg">
<g filter="url(#filter0_d_12724_100462)">
<rect x="13" y="14" width="50" height="50" rx="25" fill="#EAEBF5"/>
<g clip-path="url(#clip0_12724_100462)">
<path fill-rule="evenodd" clip-rule="evenodd" d="M32.7765 29.4399C33.0075 29.3127 33.268 29.2487 33.5317 29.2542C33.7954 29.2598 34.0529 29.3348 34.2784 29.4717L34.2805 29.473L47.785 37.7324L47.7868 37.7335C48.0043 37.8655 48.1842 38.0513 48.3091 38.273C48.4344 38.4953 48.5002 38.7461 48.5002 39.0012C48.5002 39.2564 48.4344 39.5072 48.3091 39.7295C48.1842 39.9511 48.0043 40.1369 47.7868 40.269L47.785 40.27L34.2805 48.5295L34.2784 48.5308C34.0529 48.6676 33.7954 48.7426 33.5317 48.7482C33.268 48.7538 33.0075 48.6897 32.7765 48.5625C32.5455 48.4353 32.3521 48.2494 32.2158 48.0236C32.0795 47.7978 32.0052 47.5401 32.0003 47.2764L32 47.2625L32.0001 30.726C32.005 30.4624 32.0795 30.2046 32.2158 29.9788C32.3521 29.753 32.5455 29.5671 32.7765 29.4399Z" fill="#514FA1"/>
</g>
</g>
<defs>
<filter id="filter0_d_12724_100462" x="0" y="0" width="76" height="76" filterUnits="userSpaceOnUse" color-interpolation-filters="sRGB">
<feFlood flood-opacity="0" result="BackgroundImageFix"/>
<feColorMatrix in="SourceAlpha" type="matrix" values="0 0 0 0 0 0 0 0 0 0 0 0 0 0 0 0 0 0 127 0" result="hardAlpha"/>
<feOffset dy="-1"/>
<feGaussianBlur stdDeviation="6.5"/>
<feComposite in2="hardAlpha" operator="out"/>
<feColorMatrix type="matrix" values="0 0 0 0 0.403922 0 0 0 0 0.2 0 0 0 0 0.568627 0 0 0 0.6 0"/>
<feBlend mode="normal" in2="BackgroundImageFix" result="effect1_dropShadow_12724_100462"/>
<feBlend mode="normal" in="SourceGraphic" in2="effect1_dropShadow_12724_100462" result="shape"/>
</filter>
<clipPath id="clip0_12724_100462">
<rect width="24" height="24" fill="white" transform="translate(26 27)"/>
</clipPath>
</defs>
</svg>
